<svg id="Capa_1" data-name="Capa 1" xmlns="http://www.w3.org/2000/svg" xmlns:xlink="http://www.w3.org/1999/xlink" viewBox="0 0 717.35 774"><defs><style>.cls-1{fill:url(#Degradado_sin_nombre_4);}.cls-10,.cls-2,.cls-3,.cls-4,.cls-9{fill:#fff;}.cls-2{opacity:0.05;}.cls-10,.cls-2,.cls-22,.cls-3,.cls-4{isolation:isolate;}.cls-3{opacity:0.1;}.cls-4{opacity:0.15;}.cls-5{fill:#60269e;}.cls-6{fill:#faf8ff;}.cls-7{fill:#6735b7;}.cls-8{fill:#763dc1;}.cls-10{opacity:0.3;}.cls-11{fill:#e1d9ff;}.cls-12{fill:#c0a0f2;}.cls-13{fill:#022652;}.cls-14{fill:#491889;}.cls-15{fill:#b498ea;}.cls-16{fill:#dac7ff;}.cls-17{fill:#001a46;}.cls-18{fill:#b11cab;}.cls-19{fill:#eb4680;}.cls-20{fill:#f5b500;}.cls-21{fill:#ffd70f;}.cls-22{fill:#92b4d1;opacity:0.2;}</style><linearGradient id="Degradado_sin_nombre_4" x1="83.81" y1="769.13" x2="83.81" y2="768.42" gradientTransform="translate(76635.85 830659.02) rotate(180) scale(908.73 1080)" gradientUnits="userSpaceOnUse"><stop offset="0" stop-color="#af27a9"/><stop offset="0.96" stop-color="#511866"/><stop offset="1" stop-color="#30134f"/></linearGradient></defs><title>Recuperación de contraseña</title><path id="Trazado_28" data-name="Trazado 28" class="cls-1" d="M781.57,0H469.12L195,289.36h0c-34.65,36.56-34.65,95.84,0,132.41L523.4,768.42H781.57Z" transform="translate(-64.65 3)"/><path id="Trazado_29" data-name="Trazado 29" class="cls-2" d="M781.64,526.58c-79.42-103.58-270.1-87.22-340.55-218C411.17,253,397.2,160.27,467.28-3L191.15,288.46h0c-34.9,36.83-34.9,96.54,0,133.37L522,771H782Z" transform="translate(-64.65 3)"/><path id="Trazado_30" data-name="Trazado 30" class="cls-3" d="M781.64,0H480.19C349.93,97.79,262.64,252.43,280.37,401.05,305.72,613.57,521,794.79,781.64,768.45Z" transform="translate(-64.65 3)"/><path id="Trazado_31" data-name="Trazado 31" class="cls-4" d="M485,469.44c41-151.22,169.89-205.21,157.77-305.12C637.31,119.17,602.42,59.53,468.72,0l-275,290.27h0C159,327,159,386.42,193.71,423.09L523.17,770.83C487.37,691.09,454.69,581.27,485,469.44Z" transform="translate(-64.65 3)"/><g id="Grupo_32" data-name="Grupo 32"><g id="Grupo_19" data-name="Grupo 19"><g id="Grupo_18" data-name="Grupo 18"><path id="Trazado_49" data-name="Trazado 49" class="cls-5" d="M292.13,600.79,70.56,472.87c-3.9-2.25-5.84-5.25-5.91-8.4v-11c.07-3.83,2.9,2.82,8.36-.33l125.74-72.59c10.11-5.84,25.39-6.47,34.14-1.42L454.46,507.07c2.92,1.69,5-5.47,5.79-3.19.25.75.09,10.79.11,11.58.08,3.93-2.75,8.08-8.36,11.32L326.26,599.37C316.16,605.21,300.88,605.84,292.13,600.79Z" transform="translate(-64.65 3)"/><path id="Trazado_50" data-name="Trazado 50" class="cls-6" d="M292.13,590,70.56,462.09c-8.75-5-7.65-13.87,2.45-19.7l125.74-72.6c10.11-5.83,25.39-6.47,34.14-1.42L454.45,496.3c8.75,5.05,7.66,13.87-2.45,19.7L326.26,588.6C316.16,594.44,300.88,595.07,292.13,590Z" transform="translate(-64.65 3)"/><path id="Trazado_51" data-name="Trazado 51" class="cls-7" d="M292.13,600.79c8.75,5.05,24,4.42,34.13-1.41V588.6c-10.1,5.84-25.38,6.47-34.13,1.42Z" transform="translate(-64.65 3)"/><path id="Trazado_52" data-name="Trazado 52" class="cls-8" d="M292.13,590,70.56,462.1c-4.23-2.44-6.14-5.77-5.86-9.21a4,4,0,0,0,0,.6v11c.07,3.15,2,6.15,5.91,8.4L292.13,600.79Z" transform="translate(-64.65 3)"/><path id="Trazado_53" data-name="Trazado 53" class="cls-9" d="M452,514.17l-125.74,72.6c-10.1,5.83-25.38,6.46-34.13,1.41L70.56,460.27c-3.63-2.09-5.54-4.84-5.84-7.76-.45,3.58,1.46,7.06,5.84,9.59L292.13,590c8.75,5.05,24,4.42,34.13-1.42L452,516c5.92-3.41,8.72-7.85,8.29-11.95C459.84,507.61,457.05,511.27,452,514.17Z" transform="translate(-64.65 3)"/><path id="Trazado_54" data-name="Trazado 54" class="cls-10" d="M241.69,545.33,162.84,499.8c-1.58-.91-1.38-2.5.44-3.55l29.6-17.09a6.83,6.83,0,0,1,6.16-.26l78.86,45.53c1.57.91,1.38,2.51-.45,3.56l-29.6,17.09A6.83,6.83,0,0,1,241.69,545.33Z" transform="translate(-64.65 3)"/><path id="Trazado_55" data-name="Trazado 55" class="cls-8" d="M163.28,498.12,192.88,481a6.83,6.83,0,0,1,6.16-.26L277.9,526.3a2.48,2.48,0,0,1,.73.64,1.64,1.64,0,0,0-.73-2.51L199,478.9a6.83,6.83,0,0,0-6.16.26l-29.6,17.09c-1.45.83-1.86,2-1.17,2.92A3.28,3.28,0,0,1,163.28,498.12Z" transform="translate(-64.65 3)"/><path id="Trazado_56" data-name="Trazado 56" class="cls-8" d="M218.47,384.82l13.59,7.84a6.84,6.84,0,0,0,6.23,0c1.72-1,1.71-2.6,0-3.6l-13.58-7.84a6.9,6.9,0,0,0-6.24,0C216.73,382.2,216.74,383.82,218.47,384.82Zm23.26,13.43,6.44,3.72a6.9,6.9,0,0,0,6.24,0c1.72-1,1.71-2.61,0-3.6L248,394.66a6.9,6.9,0,0,0-6.24,0c-1.71,1-1.7,2.6,0,3.6Zm16.12,9.31,6.44,3.71a6.86,6.86,0,0,0,6.24,0c1.71-1,1.71-2.6,0-3.6L264.07,404a6.86,6.86,0,0,0-6.24,0c-1.72,1-1.71,2.6,0,3.59Zm16.12,9.3,6.43,3.72a6.9,6.9,0,0,0,6.24,0c1.72-1,1.71-2.61,0-3.6l-6.44-3.72a6.87,6.87,0,0,0-6.23,0c-1.72,1-1.71,2.6,0,3.6Zm16.11,9.31,6.44,3.71a6.9,6.9,0,0,0,6.24,0c1.72-1,1.71-2.6,0-3.6l-6.44-3.72a6.93,6.93,0,0,0-6.24,0c-1.72,1-1.71,2.6,0,3.6Zm16.12,9.3,6.43,3.72a6.9,6.9,0,0,0,6.24,0c1.72-1,1.71-2.61,0-3.6l-6.43-3.72a6.9,6.9,0,0,0-6.24,0c-1.72,1-1.71,2.6,0,3.6Zm16.11,9.31,6.44,3.71a6.9,6.9,0,0,0,6.24,0c1.71-1,1.71-2.6,0-3.6l-6.44-3.72a6.93,6.93,0,0,0-6.24,0c-1.72,1-1.71,2.6,0,3.6Zm16.12,9.3,6.43,3.72a6.93,6.93,0,0,0,6.24,0c1.72-1,1.71-2.61,0-3.61l-6.43-3.71a6.9,6.9,0,0,0-6.24,0c-1.72,1-1.71,2.6,0,3.6Zm16.11,9.3L361,467.1a6.9,6.9,0,0,0,6.24,0c1.72-1,1.71-2.6,0-3.6l-6.44-3.72a6.9,6.9,0,0,0-6.24,0c-1.72,1-1.71,2.6,0,3.6Zm16.12,9.31,6.44,3.71a6.84,6.84,0,0,0,6.23,0c1.72-1,1.71-2.6,0-3.6l-6.43-3.71a6.86,6.86,0,0,0-6.24,0c-1.72,1-1.71,2.6,0,3.59Zm16.11,9.3,6.44,3.72a6.9,6.9,0,0,0,6.24,0c1.72-1,1.71-2.61,0-3.6L393,478.4a6.9,6.9,0,0,0-6.24,0c-1.71,1-1.71,2.6,0,3.6Zm16.12,9.31,6.44,3.71a6.84,6.84,0,0,0,6.23,0c1.72-1,1.71-2.6,0-3.6l-6.44-3.71a6.86,6.86,0,0,0-6.24,0c-1.72,1-1.71,2.59,0,3.59Zm16.45,9.5,6.44,3.71a6.84,6.84,0,0,0,6.23,0c1.72-1,1.71-2.6,0-3.6l-6.44-3.71a6.9,6.9,0,0,0-6.24,0c-1.72,1-1.71,2.6,0,3.6ZM204,393.68l5.58,3.22a7.83,7.83,0,0,0,7.1,0l5.53-3.19c2-1.13,1.95-3,0-4.1l-5.57-3.22a7.83,7.83,0,0,0-7.1,0L204,389.58C202,390.71,202,392.55,204,393.68Zm28.79,12.54,5.54-3.2c1.95-1.13,1.94-3,0-4.1l-5.58-3.22a7.86,7.86,0,0,0-7.1,0l-5.54,3.2c-1.95,1.13-1.94,3,0,4.1l5.57,3.22a7.86,7.86,0,0,0,7.1,0Zm3.44,6.07,5.57,3.22a7.88,7.88,0,0,0,7.11,0l5.54-3.2c2-1.12,1.94-3,0-4.1L248.82,405a7.86,7.86,0,0,0-7.1,0l-5.54,3.2c-2,1.13-1.94,3,0,4.1Zm16.12,9.31,5.57,3.21a7.86,7.86,0,0,0,7.1,0l5.54-3.2c2-1.13,1.94-3,0-4.1l-5.58-3.22a7.83,7.83,0,0,0-7.1,0l-5.53,3.2c-2,1.13-2,3,0,4.1Zm34.3,5.23-5.57-3.21a7.83,7.83,0,0,0-7.1,0l-5.54,3.2c-2,1.13-2,3,0,4.1l5.58,3.22a7.86,7.86,0,0,0,7.1,0l5.53-3.2c2-1.13,1.95-3,0-4.1Zm16.12,9.31-5.58-3.22a7.83,7.83,0,0,0-7.1,0l-5.54,3.2c-1.95,1.12-1.94,3,0,4.09l5.57,3.22a7.86,7.86,0,0,0,7.1,0l5.54-3.2c1.95-1.13,1.94-3,0-4.1Zm16.11,9.3-5.57-3.22a7.86,7.86,0,0,0-7.1,0l-5.54,3.2c-1.95,1.13-1.94,3,0,4.1l5.58,3.22a7.86,7.86,0,0,0,7.1,0l5.54-3.2c1.95-1.13,1.94-3,0-4.1ZM335,454.75l-5.58-3.22a7.86,7.86,0,0,0-7.1,0l-5.53,3.2c-2,1.13-1.95,3,0,4.1l5.57,3.22a7.83,7.83,0,0,0,7.1,0l5.54-3.2c2-1.12,1.95-3,0-4.09Zm16.11,9.3-5.57-3.22a7.86,7.86,0,0,0-7.1,0l-5.54,3.2c-1.95,1.13-1.94,3,0,4.1l5.58,3.22a7.86,7.86,0,0,0,7.1,0l5.53-3.2c2-1.13,1.95-3,0-4.1Zm16.12,9.3-5.57-3.21a7.83,7.83,0,0,0-7.1,0L349,473.32c-2,1.13-1.95,3,0,4.1l5.57,3.22a7.83,7.83,0,0,0,7.1,0l5.54-3.19c2-1.14,1.95-3,0-4.11Zm-2.08,13.37,5.58,3.22a7.86,7.86,0,0,0,7.1,0l5.54-3.19c2-1.13,1.94-3,0-4.11l-5.58-3.21a7.86,7.86,0,0,0-7.1,0l-5.54,3.2C363.15,483.75,363.16,485.59,365.12,486.72ZM399.43,492l-5.57-3.22a7.83,7.83,0,0,0-7.1,0l-5.54,3.2c-2,1.12-2,3,0,4.1l5.57,3.21a7.86,7.86,0,0,0,7.1,0l5.54-3.2c2-1.13,1.95-3,0-4.1ZM423,505.58l-12.72-7.35a7.86,7.86,0,0,0-7.1,0l-5.54,3.2c-1.95,1.12-1.94,3,0,4.1l12.73,7.34a7.83,7.83,0,0,0,7.1,0l5.54-3.2c1.95-1.12,1.94-2.95,0-4.09Zm-234-103.28,12.72,7.35a7.83,7.83,0,0,0,7.1,0l5.54-3.19c2-1.13,2-3,0-4.1L201.66,395a7.86,7.86,0,0,0-7.1,0L189,398.2C187.07,399.33,187.08,401.17,189.05,402.3Zm23.26,13.43,5.58,3.22a7.83,7.83,0,0,0,7.1,0l5.54-3.19c1.95-1.13,1.94-3,0-4.1l-5.57-3.22a7.83,7.83,0,0,0-7.1,0l-5.54,3.2c-1.95,1.12-1.94,3,0,4.09ZM234,428.26a7.86,7.86,0,0,0,7.1,0l5.54-3.2c2-1.13,2-3,0-4.1l-5.57-3.21a7.83,7.83,0,0,0-7.1,0l-5.54,3.2c-2,1.13-1.95,3,0,4.1Zm16.12,9.3a7.83,7.83,0,0,0,7.1,0l5.54-3.19c1.95-1.13,1.94-3,0-4.1l-5.57-3.22a7.83,7.83,0,0,0-7.1,0l-5.54,3.19c-2,1.13-1.94,3,0,4.1Zm16.05-1.21-5.53,3.2c-2,1.13-1.95,3,0,4.1l5.57,3.21a7.83,7.83,0,0,0,7.1,0l5.54-3.2c2-1.13,1.95-3,0-4.1l-5.57-3.22a7.88,7.88,0,0,0-7.11,0Zm16.46,9.11-6.22,3.59c-1.77,1-1.76,2.68,0,3.7l6.26,3.62a7.12,7.12,0,0,0,6.42,0l6.22-3.59c1.76-1,1.75-2.68,0-3.71l-6.26-3.61a7.09,7.09,0,0,0-6.42,0Zm16.12,9.3-6.22,3.59c-1.77,1-1.76,2.68,0,3.71l6.26,3.61a7.07,7.07,0,0,0,6.41,0l6.22-3.59c1.77-1,1.76-2.68,0-3.7l-6.26-3.62a7.1,7.1,0,0,0-6.41,0Zm16.11,9.31-6.22,3.59c-1.76,1-1.76,2.68,0,3.7l6.26,3.62a7.12,7.12,0,0,0,6.42,0l6.22-3.59c1.76-1,1.76-2.68,0-3.71l-6.26-3.61a7.09,7.09,0,0,0-6.42,0Zm16.12,9.3L324.76,477c-1.77,1-1.76,2.68,0,3.71l6.26,3.61a7.07,7.07,0,0,0,6.41,0l6.22-3.59c1.77-1,1.76-2.68,0-3.7l-6.26-3.62a7.1,7.1,0,0,0-6.41,0Zm16.11,9.31-6.22,3.59c-1.76,1-1.76,2.68,0,3.7l6.26,3.62a7.12,7.12,0,0,0,6.42,0l6.22-3.59c1.76-1,1.76-2.68,0-3.71l-6.26-3.61a7.12,7.12,0,0,0-6.42,0Zm22.59,20.22,6.22-3.58c1.77-1,1.76-2.68,0-3.71L369.62,492a7.07,7.07,0,0,0-6.41,0l-6.22,3.6c-1.77,1-1.76,2.67,0,3.7l6.26,3.61a7.07,7.07,0,0,0,6.41,0Zm16.12,9.3,6.22-3.59c1.76-1,1.76-2.67,0-3.7l-6.26-3.61a7.12,7.12,0,0,0-6.42,0l-6.22,3.6c-1.76,1-1.75,2.67,0,3.7l6.25,3.61a7.09,7.09,0,0,0,6.42,0Zm22.65,2.21-6.26-3.62a7.12,7.12,0,0,0-6.42,0l-6.22,3.59c-1.76,1-1.75,2.68,0,3.71l6.26,3.61a7.09,7.09,0,0,0,6.42,0l6.22-3.59c1.77-1,1.75-2.68,0-3.71ZM173.78,410.72,194,422.39a7.12,7.12,0,0,0,6.42,0l6.22-3.59c1.76-1,1.76-2.68,0-3.71l-20.21-11.66a7.1,7.1,0,0,0-6.41,0l-6.22,3.6C172,408,172,409.69,173.78,410.72Zm30.06,17.36,6.26,3.61a7.09,7.09,0,0,0,6.42,0l6.21-3.58c1.77-1,1.76-2.68,0-3.71l-6.25-3.61a7.09,7.09,0,0,0-6.42,0l-6.22,3.59C202.05,425.39,202.06,427.05,203.84,428.08Zm16.11,9.3,6.26,3.62a7.12,7.12,0,0,0,6.42,0l6.22-3.6c1.76-1,1.76-2.67,0-3.7l-6.26-3.61a7.09,7.09,0,0,0-6.42,0l-6.22,3.59c-1.76,1-1.75,2.67,0,3.7Zm16.12,9.31,6.26,3.61a7.07,7.07,0,0,0,6.41,0l6.22-3.59c1.77-1,1.76-2.68,0-3.7l-6.26-3.62a7.1,7.1,0,0,0-6.41,0L236.05,443c-1.77,1-1.76,2.68,0,3.71Zm28.79,12.93,6.22-3.6c1.77-1,1.76-2.67,0-3.7l-6.26-3.61a7.09,7.09,0,0,0-6.42,0l-6.22,3.59c-1.76,1-1.75,2.67,0,3.7l6.26,3.61a7.09,7.09,0,0,0,6.42,0Zm16.12,9.3,6.21-3.59c1.77-1,1.76-2.68,0-3.71L280.92,458a7.09,7.09,0,0,0-6.42,0l-6.22,3.59c-1.77,1-1.76,2.68,0,3.7l6.26,3.61a7.09,7.09,0,0,0,6.42,0Zm16.11,9.3,6.22-3.59c1.76-1,1.76-2.68,0-3.7L297,467.31a7.12,7.12,0,0,0-6.42,0l-6.22,3.59c-1.76,1-1.75,2.68,0,3.71l6.26,3.61a7.09,7.09,0,0,0,6.42,0Zm16.12,9.31,6.22-3.59c1.76-1,1.75-2.68,0-3.71l-6.25-3.61a7.09,7.09,0,0,0-6.42,0l-6.22,3.59c-1.77,1-1.76,2.68,0,3.7l6.26,3.62A7.12,7.12,0,0,0,313.21,487.53Zm16.11,9.3,6.22-3.59c1.77-1,1.76-2.68,0-3.7l-6.26-3.62a7.1,7.1,0,0,0-6.41,0l-6.22,3.59c-1.77,1-1.76,2.68,0,3.71l6.25,3.61a7.09,7.09,0,0,0,6.42,0Zm16.12,9.31,6.22-3.59c1.76-1,1.75-2.68,0-3.71l-6.26-3.61a7.09,7.09,0,0,0-6.42,0l-6.22,3.59c-1.76,1-1.75,2.68,0,3.7l6.26,3.62a7.12,7.12,0,0,0,6.42,0Zm3.44,5.67,6.26,3.62a7.07,7.07,0,0,0,6.41,0l6.22-3.59c1.77-1,1.76-2.68,0-3.7l-6.26-3.61a7.07,7.07,0,0,0-6.41,0l-6.22,3.6c-1.77,1-1.76,2.67,0,3.7ZM393.52,523l-15.91-9.18a7.09,7.09,0,0,0-6.42,0L365,517.42c-1.76,1-1.75,2.67,0,3.7l15.92,9.19a7.09,7.09,0,0,0,6.42,0l6.21-3.59c1.77-1,1.76-2.68,0-3.71ZM158.91,419.78l28.67,16.56a8,8,0,0,0,7.25,0l5.39-3.11c2-1.16,2-3,0-4.19L171.53,412.5a8,8,0,0,0-7.25,0l-5.39,3.11C156.89,416.75,156.9,418.63,158.91,419.78Zm39.36,22.73,5.43,3.13a8,8,0,0,0,7.24,0l5.4-3.11c2-1.15,2-3,0-4.18l-5.42-3.14a8,8,0,0,0-7.25,0l-5.39,3.11C196.25,439.48,196.26,441.35,198.27,442.51Zm16.12,9.3,5.42,3.14a8,8,0,0,0,7.25,0l5.39-3.11c2-1.16,2-3,0-4.19L227,444.53a8,8,0,0,0-7.25,0l-5.39,3.11c-2,1.15-2,3,0,4.18Zm16.11,9.31,5.43,3.13a8,8,0,0,0,7.25,0l5.39-3.11c2-1.15,2-3,0-4.18l-5.42-3.14a8,8,0,0,0-7.25,0l-5.39,3.11c-2,1.15-2,3,0,4.19Zm16.12,9.3,5.42,3.14a8,8,0,0,0,7.25,0l5.39-3.11c2-1.15,2-3,0-4.19l-5.43-3.13a8,8,0,0,0-7.25,0l-5.38,3.11c-2,1.15-2,3,0,4.18Zm16.11,9.31,5.43,3.13a8,8,0,0,0,7.25,0l5.38-3.11c2-1.15,2-3,0-4.18l-5.42-3.13a8,8,0,0,0-7.25,0l-5.39,3.11c-2,1.15-2,3,0,4.19Zm16.12,9.3,5.42,3.13a8,8,0,0,0,7.25,0l5.39-3.12c2-1.15,2-3,0-4.18l-5.42-3.13a8,8,0,0,0-7.25,0l-5.39,3.11c-2,1.16-2,3,0,4.19Zm16.12,9.3,5.42,3.14a8,8,0,0,0,7.25,0l5.39-3.11c2-1.15,2-3,0-4.19l-5.42-3.13a8,8,0,0,0-7.25,0L295,494.15C293,495.3,293,497.17,295,498.33Zm16.11,9.31,5.43,3.13a8,8,0,0,0,7.25,0l5.39-3.11c2-1.15,2-3,0-4.18l-5.42-3.14a8,8,0,0,0-7.25,0l-5.39,3.11c-2,1.16-2,3,0,4.19Zm16.12,9.3,5.42,3.14a8,8,0,0,0,7.25,0l5.39-3.11c2-1.16,2-3,0-4.19l-5.43-3.14a8,8,0,0,0-7.24,0l-5.39,3.11c-2,1.16-2,3,0,4.19Zm16.11,9.31,5.43,3.13a8,8,0,0,0,7.25,0l5.38-3.11c2-1.15,2-3,0-4.19L355.93,519a8,8,0,0,0-7.25,0l-5.39,3.11c-2,1.15-2,3,0,4.19Zm34.52,5.36-5.43-3.14a8,8,0,0,0-7.25,0l-5.38,3.11c-2,1.16-2,3,0,4.19l5.42,3.13a8,8,0,0,0,7.25,0l5.39-3.11c2-1.15,2-3,0-4.19ZM169.18,428.38l-12.58-7.26a8,8,0,0,0-7.25,0L144,424.21c-2,1.16-2,3,0,4.19l12.57,7.26a8,8,0,0,0,7.25,0l5.39-3.11C171.2,431.41,171.19,429.54,169.18,428.38Zm16.11,9.3-5.42-3.14a8,8,0,0,0-7.25,0l-5.39,3.11c-2,1.16-2,3,0,4.19l5.43,3.13a8,8,0,0,0,7.25,0l5.39-3.12c2-1.14,2-3,0-4.18Zm16.12,9.3L196,443.85a8,8,0,0,0-7.24,0L183.35,447c-2,1.15-2,3,0,4.19l5.42,3.13a8,8,0,0,0,7.25,0l5.39-3.11c2-1.15,2-3,0-4.18Zm112.81,65.13L212.1,453.16a8,8,0,0,0-7.25,0l-5.39,3.12c-2,1.15-2,3,0,4.18l102.12,59a8,8,0,0,0,7.25,0l5.39-3.11c2-1.15,2-3,0-4.18Zm16.11,9.31-5.42-3.14a8,8,0,0,0-7.25,0l-5.39,3.11c-2,1.15-2,3,0,4.19l5.42,3.13a8,8,0,0,0,7.25,0l5.39-3.11c2-1.15,2-3,0-4.18Zm16.12,9.3L341,527.59a8,8,0,0,0-7.25,0l-5.39,3.11c-2,1.15-2,3,0,4.19l5.42,3.13a8,8,0,0,0,7.25,0l5.39-3.11c2-1.15,2-3,0-4.18Zm16.45,9.5-5.43-3.13a8,8,0,0,0-7.24,0l-5.39,3.11c-2,1.15-2,3,0,4.18l5.42,3.14a8,8,0,0,0,7.25,0l5.39-3.11c2-1.15,2-3,0-4.18Z" transform="translate(-64.65 3)"/><path id="Trazado_57" data-name="Trazado 57" class="cls-11" d="M218.47,383.32l13.59,7.84a6.87,6.87,0,0,0,6.23,0c1.72-1,1.71-2.6,0-3.6l-13.58-7.85a6.93,6.93,0,0,0-6.24,0C216.73,380.71,216.74,382.32,218.47,383.32Zm23.26,13.43,6.44,3.72a6.93,6.93,0,0,0,6.24,0c1.72-1,1.71-2.61,0-3.61L248,393.16a6.9,6.9,0,0,0-6.24,0c-1.71,1-1.7,2.6,0,3.6Zm16.12,9.3,6.44,3.72a6.9,6.9,0,0,0,6.24,0c1.71-1,1.71-2.6,0-3.6l-6.44-3.72a6.9,6.9,0,0,0-6.24,0c-1.72,1-1.71,2.61,0,3.6ZM274,415.36l6.43,3.72a6.93,6.93,0,0,0,6.24,0c1.72-1,1.71-2.61,0-3.61l-6.44-3.71a6.87,6.87,0,0,0-6.23,0c-1.72,1-1.71,2.6,0,3.6Zm16.11,9.3,6.44,3.72a6.9,6.9,0,0,0,6.24,0c1.72-1,1.71-2.61,0-3.6l-6.44-3.72a6.9,6.9,0,0,0-6.24,0c-1.72,1-1.71,2.6,0,3.6ZM306.2,434l6.43,3.71a6.86,6.86,0,0,0,6.24,0c1.72-1,1.71-2.6,0-3.6l-6.43-3.71a6.9,6.9,0,0,0-6.24,0c-1.72,1-1.71,2.61,0,3.61Zm16.11,9.3,6.44,3.72a6.9,6.9,0,0,0,6.24,0c1.71-1,1.71-2.61,0-3.6l-6.44-3.72a6.9,6.9,0,0,0-6.24,0c-1.72,1-1.71,2.6,0,3.6Zm16.12,9.31,6.43,3.71a6.9,6.9,0,0,0,6.24,0c1.72-1,1.71-2.6,0-3.6L344.65,449a6.93,6.93,0,0,0-6.24,0c-1.72,1-1.71,2.6,0,3.6Zm16.11,9.3L361,465.6a6.93,6.93,0,0,0,6.24,0c1.72-1,1.71-2.61,0-3.6l-6.44-3.72a6.9,6.9,0,0,0-6.24,0c-1.72,1-1.71,2.6,0,3.6Zm16.12,9.3,6.44,3.72a6.87,6.87,0,0,0,6.23,0c1.72-1,1.71-2.6,0-3.6l-6.43-3.72a6.93,6.93,0,0,0-6.24,0c-1.72,1-1.71,2.6,0,3.6Zm16.11,9.31,6.44,3.72a6.93,6.93,0,0,0,6.24,0c1.72-1,1.71-2.61,0-3.61L393,476.9a6.9,6.9,0,0,0-6.24,0c-1.71,1-1.71,2.6,0,3.6Zm16.12,9.3,6.44,3.72a6.87,6.87,0,0,0,6.23,0c1.72-1,1.71-2.6,0-3.6l-6.44-3.72a6.9,6.9,0,0,0-6.24,0c-1.72,1-1.71,2.6,0,3.6Zm16.45,9.5,6.44,3.72a6.87,6.87,0,0,0,6.23,0c1.72-1,1.71-2.6,0-3.6l-6.44-3.72a6.93,6.93,0,0,0-6.24,0c-1.72,1-1.71,2.6,0,3.6ZM204,392.19l5.58,3.22a7.86,7.86,0,0,0,7.1,0l5.53-3.2c2-1.13,1.95-3,0-4.1l-5.57-3.21a7.83,7.83,0,0,0-7.1,0l-5.54,3.2c-1.95,1.12-1.94,3,0,4.09Zm28.79,12.53,5.54-3.19c1.95-1.13,1.94-3,0-4.1l-5.58-3.22a7.83,7.83,0,0,0-7.1,0l-5.53,3.19c-2,1.13-1.95,3,0,4.1l5.57,3.22a7.86,7.86,0,0,0,7.1,0Zm3.44,6.08,5.58,3.21a7.83,7.83,0,0,0,7.1,0l5.54-3.2c2-1.13,1.94-3,0-4.1l-5.57-3.22a7.86,7.86,0,0,0-7.1,0l-5.54,3.2c-2,1.12-1.94,2.95,0,4.09Zm16.12,9.3,5.57,3.22a7.83,7.83,0,0,0,7.1,0l5.54-3.2c2-1.12,1.94-3,0-4.1l-5.58-3.21a7.86,7.86,0,0,0-7.1,0L252.3,416c-2,1.12-2,3,0,4.09Zm34.3,5.24-5.57-3.22a7.86,7.86,0,0,0-7.1,0l-5.54,3.2c-2,1.12-1.94,3,0,4.09l5.58,3.22a7.86,7.86,0,0,0,7.1,0l5.53-3.2c2-1.14,1.95-3,0-4.11Zm16.12,9.3-5.57-3.21a7.88,7.88,0,0,0-7.11,0l-5.53,3.2c-2,1.13-1.95,3,0,4.1l5.57,3.22a7.83,7.83,0,0,0,7.1,0l5.54-3.2c1.95-1.13,1.94-3,0-4.11ZM318.85,444l-5.57-3.22a7.83,7.83,0,0,0-7.1,0l-5.54,3.2c-1.95,1.12-1.94,3,0,4.1l5.58,3.21a7.86,7.86,0,0,0,7.1,0l5.54-3.2c1.95-1.14,1.94-3,0-4.11Zm16.12,9.3L329.4,450a7.88,7.88,0,0,0-7.11,0l-5.53,3.2c-2,1.13-1.95,3,0,4.1l5.57,3.22a7.86,7.86,0,0,0,7.1,0l5.54-3.2c2-1.13,1.95-3,0-4.1Zm16.11,9.31-5.57-3.22a7.83,7.83,0,0,0-7.1,0l-5.54,3.19c-1.95,1.13-1.94,3,0,4.1l5.57,3.22a7.83,7.83,0,0,0,7.1,0l5.54-3.19c1.95-1.14,1.94-3,0-4.11Zm16.12,9.3-5.57-3.22a7.86,7.86,0,0,0-7.1,0l-5.54,3.2c-2,1.13-1.95,3,0,4.1l5.57,3.22a7.86,7.86,0,0,0,7.1,0l5.54-3.2c2-1.13,1.95-3,0-4.11Zm-2.08,13.37,5.58,3.22a7.83,7.83,0,0,0,7.1,0l5.54-3.2c2-1.12,1.94-3,0-4.09L377.74,478a7.86,7.86,0,0,0-7.1,0l-5.54,3.2c-2,1.12-1.94,3,0,4.1Zm34.31,5.24-5.57-3.23a7.86,7.86,0,0,0-7.1,0l-5.54,3.2c-2,1.13-2,3,0,4.1l5.57,3.21a7.83,7.83,0,0,0,7.1,0l5.54-3.2c2-1.13,1.95-3,0-4.1ZM423,504.1l-12.72-7.35a7.83,7.83,0,0,0-7.1,0l-5.54,3.19c-1.95,1.13-1.94,3,0,4.1l12.73,7.35a7.86,7.86,0,0,0,7.1,0l5.54-3.2c1.95-1.14,1.94-3,0-4.11Zm-234-103.3,12.72,7.35a7.86,7.86,0,0,0,7.1,0l5.54-3.2c2-1.12,2-3,0-4.09l-12.73-7.35a7.83,7.83,0,0,0-7.1,0L189,396.7C187.07,397.83,187.08,399.66,189.05,400.8Zm23.26,13.43,5.58,3.22a7.83,7.83,0,0,0,7.1,0l5.54-3.19c1.95-1.13,1.94-3,0-4.1L224.93,407a7.83,7.83,0,0,0-7.1,0l-5.54,3.19c-1.95,1.13-1.94,3,0,4.1ZM234,426.75a7.83,7.83,0,0,0,7.1,0l5.54-3.2c2-1.13,2-3,0-4.1l-5.57-3.22a7.86,7.86,0,0,0-7.1,0l-5.54,3.2c-2,1.13-1.95,3,0,4.1Zm16.12,9.31a7.83,7.83,0,0,0,7.1,0l5.54-3.19c1.95-1.13,1.94-3,0-4.1l-5.57-3.22a7.83,7.83,0,0,0-7.1,0l-5.54,3.19c-2,1.13-1.94,3,0,4.1Zm16.05-1.21-5.53,3.2c-2,1.12-1.95,3,0,4.1l5.57,3.21a7.86,7.86,0,0,0,7.1,0l5.54-3.2c2-1.13,1.95-3,0-4.1l-5.57-3.22a7.88,7.88,0,0,0-7.11,0ZM282.63,444l-6.22,3.59c-1.77,1-1.76,2.68,0,3.7l6.26,3.62a7.12,7.12,0,0,0,6.42,0l6.22-3.59c1.76-1,1.75-2.68,0-3.71L289.05,444a7.09,7.09,0,0,0-6.42,0Zm16.12,9.3-6.22,3.59c-1.77,1-1.76,2.68,0,3.71l6.26,3.61a7.07,7.07,0,0,0,6.41,0l6.22-3.58c1.77-1,1.76-2.68,0-3.71l-6.26-3.61a7.07,7.07,0,0,0-6.41,0Zm16.11,9.31-6.22,3.59c-1.76,1-1.76,2.67,0,3.7l6.26,3.61a7.09,7.09,0,0,0,6.42,0l6.22-3.59c1.76-1,1.76-2.68,0-3.71l-6.26-3.61a7.09,7.09,0,0,0-6.42,0Zm16.12,9.3-6.22,3.59c-1.77,1-1.76,2.68,0,3.71l6.26,3.61a7.07,7.07,0,0,0,6.41,0l6.22-3.59c1.77-1,1.76-2.68,0-3.7l-6.26-3.62a7.1,7.1,0,0,0-6.41,0Zm16.11,9.31-6.22,3.58c-1.76,1-1.76,2.68,0,3.71l6.26,3.61a7.09,7.09,0,0,0,6.42,0l6.22-3.59c1.76-1,1.76-2.68,0-3.7l-6.26-3.62a7.09,7.09,0,0,0-6.42,0Zm22.59,20.22,6.22-3.59c1.77-1,1.76-2.68,0-3.71l-6.26-3.61a7.07,7.07,0,0,0-6.41,0L357,494.06c-1.77,1-1.76,2.68,0,3.71l6.26,3.61a7.07,7.07,0,0,0,6.41,0Zm16.12,9.3,6.22-3.59c1.76-1,1.76-2.68,0-3.7l-6.26-3.62a7.09,7.09,0,0,0-6.42,0l-6.22,3.6c-1.76,1-1.75,2.68,0,3.7l6.25,3.61a7.09,7.09,0,0,0,6.42,0Zm22.65,2.21-6.26-3.62a7.12,7.12,0,0,0-6.42,0l-6.22,3.59c-1.76,1-1.75,2.68,0,3.71l6.26,3.61a7.09,7.09,0,0,0,6.42,0l6.22-3.58c1.77-1,1.75-2.69,0-3.72ZM173.78,409.22,194,420.89a7.12,7.12,0,0,0,6.42,0l6.22-3.59c1.76-1,1.76-2.68,0-3.71l-20.21-11.66a7.07,7.07,0,0,0-6.41,0l-6.22,3.59C172,406.54,172,408.2,173.78,409.22Zm30.06,17.36,6.26,3.61a7.09,7.09,0,0,0,6.42,0l6.21-3.59c1.77-1,1.76-2.68,0-3.7l-6.25-3.62a7.12,7.12,0,0,0-6.42,0l-6.22,3.59C202.05,423.89,202.06,425.55,203.84,426.58Zm16.11,9.3,6.26,3.61a7.09,7.09,0,0,0,6.42,0l6.22-3.59c1.76-1,1.76-2.68,0-3.71l-6.26-3.61a7.12,7.12,0,0,0-6.42,0l-6.22,3.6c-1.76,1-1.75,2.68,0,3.7Zm16.12,9.31,6.26,3.61a7.07,7.07,0,0,0,6.41,0l6.22-3.59c1.77-1,1.76-2.68,0-3.71l-6.26-3.61a7.1,7.1,0,0,0-6.41,0l-6.22,3.59c-1.77,1-1.76,2.68,0,3.71Zm28.79,12.93,6.22-3.6c1.77-1,1.76-2.67,0-3.7l-6.26-3.61a7.12,7.12,0,0,0-6.42,0l-6.22,3.6c-1.76,1-1.75,2.68,0,3.7l6.26,3.61a7.09,7.09,0,0,0,6.42,0Zm16.12,9.3,6.21-3.59c1.77-1,1.76-2.68,0-3.71l-6.25-3.61a7.09,7.09,0,0,0-6.42,0l-6.22,3.59c-1.77,1-1.76,2.68,0,3.7l6.26,3.62a7.09,7.09,0,0,0,6.42,0Zm16.11,9.3,6.22-3.58c1.76-1,1.76-2.68,0-3.71L297,465.82a7.09,7.09,0,0,0-6.42,0l-6.22,3.59c-1.76,1-1.75,2.68,0,3.7l6.26,3.62a7.12,7.12,0,0,0,6.42,0ZM313.2,486l6.22-3.59c1.77-1,1.76-2.68,0-3.71l-6.26-3.61a7.07,7.07,0,0,0-6.41,0l-6.22,3.59c-1.77,1-1.76,2.68,0,3.7l6.26,3.62a7.12,7.12,0,0,0,6.42,0Zm16.12,9.3,6.22-3.59c1.77-1,1.76-2.68,0-3.7l-6.26-3.62a7.12,7.12,0,0,0-6.42,0L316.62,488c-1.76,1-1.75,2.68,0,3.71l6.26,3.61a7.09,7.09,0,0,0,6.42,0Zm16.12,9.31,6.21-3.59c1.77-1,1.76-2.68,0-3.71l-6.26-3.61a7.09,7.09,0,0,0-6.42,0l-6.22,3.59c-1.77,1-1.76,2.68,0,3.7l6.26,3.62a7.12,7.12,0,0,0,6.42,0Zm3.44,5.68,6.26,3.61a7.07,7.07,0,0,0,6.41,0l6.22-3.59c1.77-1,1.76-2.68,0-3.7L361.49,503a7.1,7.1,0,0,0-6.41,0l-6.22,3.59c-1.77,1-1.76,2.68,0,3.7Zm44.64,11.21-15.91-9.19a7.09,7.09,0,0,0-6.42,0L365,515.92c-1.76,1-1.76,2.68,0,3.7l15.92,9.19a7.07,7.07,0,0,0,6.41,0l6.22-3.59c1.77-1,1.76-2.68,0-3.71ZM158.91,418.28l28.67,16.56a8,8,0,0,0,7.25,0l5.39-3.11c2-1.15,2-3,0-4.19L171.53,411a8,8,0,0,0-7.25,0l-5.39,3.11C156.89,415.25,156.9,417.12,158.91,418.28ZM198.27,441l5.43,3.14a8,8,0,0,0,7.24,0l5.4-3.11c2-1.16,2-3,0-4.19l-5.42-3.13a8,8,0,0,0-7.25,0l-5.39,3.12C196.25,438,196.26,439.85,198.27,441Zm16.12,9.3,5.42,3.13a8,8,0,0,0,7.25,0l5.39-3.11c2-1.16,2-3,0-4.19L227,443a8,8,0,0,0-7.25,0l-5.39,3.11c-2,1.15-2,3,0,4.18Zm16.11,9.31,5.43,3.13a8,8,0,0,0,7.25,0l5.39-3.11c2-1.15,2-3,0-4.18l-5.42-3.13a8,8,0,0,0-7.25,0l-5.39,3.11c-2,1.16-2,3,0,4.19Zm16.12,9.3,5.42,3.13a8,8,0,0,0,7.25,0l5.39-3.12c2-1.15,2-3,0-4.18l-5.43-3.14a8,8,0,0,0-7.25,0l-5.38,3.11c-2,1.16-2,3,0,4.19Zm16.11,9.31,5.43,3.13a8,8,0,0,0,7.25,0l5.38-3.11c2-1.15,2-3,0-4.18l-5.42-3.14a8,8,0,0,0-7.25,0L262.71,474c-2,1.15-2,3,0,4.19Zm16.12,9.3,5.42,3.13a8,8,0,0,0,7.25,0l5.39-3.12c2-1.15,2-3,0-4.18l-5.42-3.13a8,8,0,0,0-7.25,0l-5.39,3.11c-2,1.15-2,3,0,4.18Zm16.12,9.3,5.42,3.13a8,8,0,0,0,7.25,0l5.39-3.12c2-1.15,2-3,0-4.18l-5.42-3.13a8,8,0,0,0-7.25,0L295,492.65C293,493.8,293,495.68,295,496.83Zm16.11,9.31,5.43,3.13a8,8,0,0,0,7.25,0l5.39-3.11c2-1.15,2-3,0-4.19l-5.42-3.13a8,8,0,0,0-7.25,0L311.06,502c-2,1.16-2,3,0,4.19Zm16.12,9.3,5.42,3.14a8,8,0,0,0,7.25,0l5.39-3.11c2-1.15,2-3,0-4.19l-5.43-3.13a8,8,0,0,0-7.24,0l-5.39,3.11c-2,1.15-2,3,0,4.18Zm16.11,9.3,5.43,3.14a8,8,0,0,0,7.25,0l5.38-3.11c2-1.15,2-3,0-4.18l-5.42-3.14a8,8,0,0,0-7.25,0l-5.39,3.11c-2,1.15-2,3,0,4.19Zm34.52,5.36L372.4,527a8,8,0,0,0-7.25,0l-5.38,3.11c-2,1.15-2,3,0,4.18l5.42,3.14a8,8,0,0,0,7.25,0l5.39-3.11c2-1.15,2-3,0-4.19ZM169.18,426.88l-12.57-7.26a8,8,0,0,0-7.25,0l-5.4,3.1c-2,1.16-2,3,0,4.19l12.57,7.26a8,8,0,0,0,7.25,0l5.39-3.11c2-1.15,2-3,0-4.18Zm16.12,9.3-5.43-3.13a8,8,0,0,0-7.25,0l-5.39,3.11c-2,1.15-2,3,0,4.19l5.42,3.13a8,8,0,0,0,7.25,0l5.39-3.11c2-1.15,2-3,0-4.19Zm16.11,9.31L196,442.35a8,8,0,0,0-7.25,0l-5.39,3.11c-2,1.16-2,3,0,4.19l5.43,3.14a8,8,0,0,0,7.25,0l5.39-3.11c2-1.16,2-3,0-4.19Zm112.81,65.12L212.1,451.66a8,8,0,0,0-7.25,0l-5.39,3.11c-2,1.15-2,3,0,4.19L301.6,517.9a8,8,0,0,0,7.25,0l5.39-3.11c2-1.15,2-3,0-4.18Zm16.12,9.31-5.43-3.13a8,8,0,0,0-7.25,0l-5.39,3.12c-2,1.15-2,3,0,4.18l5.42,3.14a8,8,0,0,0,7.25,0l5.39-3.11c2-1.16,2-3,0-4.19Zm16.11,9.3L341,526.09a8,8,0,0,0-7.25,0l-5.39,3.11c-2,1.15-2,3,0,4.19l5.42,3.13a8,8,0,0,0,7.25,0l5.39-3.11c2-1.15,2-3,0-4.18Zm16.45,9.5-5.42-3.13a8,8,0,0,0-7.25,0l-5.39,3.11c-2,1.15-2,3,0,4.18l5.43,3.13a8,8,0,0,0,7.25,0l5.39-3.12c2-1.14,2-3,0-4.18Z" transform="translate(-64.65 3)"/><g id="Grupo_17" data-name="Grupo 17"><path id="Trazado_58" data-name="Trazado 58" class="cls-12" d="M450.94,494.6,237.46,371.28c-8.26-4.78-15-17.58-15-28.59V175.21c0-11,6.7-16.09,15-11.32L450.94,287.22c8.27,4.77,15,17.57,15,28.59V483.28C465.91,494.31,459.21,499.37,450.94,494.6Z" transform="translate(-64.65 3)"/><path id="Trazado_59" data-name="Trazado 59" class="cls-5" d="M452.87,486,241.67,364c-6.65-4.23-10.76-12.68-10.76-21.32V174.4a2.66,2.66,0,0,1,4-2.29l.47.27L446.74,294.5c7.92,4.56,10.77,12.67,10.77,21.32V483.71a2.88,2.88,0,0,1-2.88,2.86,2.92,2.92,0,0,1-1.41-.38Z" transform="translate(-64.65 3)"/><path id="Trazado_60" data-name="Trazado 60" class="cls-13" d="M446.74,294.5,235.37,172.39l-.47-.28a2.65,2.65,0,0,0-4,2.29V342.68c0,8.64,4.11,17.09,10.76,21.32l211.2,122,.35.2a2.86,2.86,0,0,0,4.28-2.48V315.82C457.51,307.17,454.66,299.06,446.74,294.5Zm9.09,189.21a1.18,1.18,0,0,1-1.18,1.18,1.11,1.11,0,0,1-.59-.16L242.51,362.54c-6-3.82-9.92-11.63-9.92-19.86V174.4a1,1,0,0,1,1-1,1,1,0,0,1,.49.13L445.9,296c8.2,4.73,9.92,13.42,9.92,19.87Z" transform="translate(-64.65 3)"/><path id="Trazado_61" data-name="Trazado 61" class="cls-14" d="M455.19,285,241.7,161.65c-3.27-1.89-6.29-2.24-8.75-1.29-.32.12-4.49,2.34-4.78,2.5h0c2.55-1.24,5.79-1,9.31,1L450.94,287.22c8.27,4.77,15,17.58,15,28.6V483.28c0,6.88-2.61,11.44-6.58,12.73a2.46,2.46,0,0,0,1.31-.45c.19-.11,4.72-2.66,4.9-2.79,2.84-2,4.61-6.08,4.61-11.74V313.56C470.15,302.54,463.45,289.74,455.19,285Z" transform="translate(-64.65 3)"/><path id="Trazado_62" data-name="Trazado 62" class="cls-8" d="M455.19,285,241.7,161.65c-3.27-1.89-6.29-2.24-8.75-1.29-.32.12-4.49,2.34-4.78,2.5h0c2.55-1.24,5.79-1,9.31,1L450.94,287.22Z" transform="translate(-64.65 3)"/><path id="Trazado_63" data-name="Trazado 63" class="cls-9" d="M451.66,286.86,238.18,163.54c-3.39-2-6.5-2.24-9-1.15a11,11,0,0,1,7.21,1.69L449.87,287.4c8.26,4.77,15,17.57,15,28.59V483.47c0,6.5-2.35,10.9-6,12.46,4.62-.73,7.75-5.48,7.75-13V315.45C466.63,304.44,459.93,291.63,451.66,286.86Z" transform="translate(-64.65 3)"/></g></g></g><g id="Grupo_27" data-name="Grupo 27"><path id="Trazado_86" data-name="Trazado 86" class="cls-15" d="M277.38,289.59c-25-14.16-49.51-38.31-70-69.09l-.28-.16c-20.51,7.1-45,3-70-11.74l-1-.57,1.35,46.77c4.75,72.49,29.48,104,69.27,171.44l1,.56c39.8-21.45,64.52-24.45,69.27-91.46l1.35-45.2Z" transform="translate(-64.65 3)"/><path id="Trazado_87" data-name="Trazado 87" class="cls-16" d="M291.49,278.84c-25-14.16-49.5-38.32-70-69.09l-.27-.16c-20.51,7.09-45,3-70-11.75l-1-.57-13.85,10.92.69.41c25,14.73,49.5,18.84,70,11.74l.28.16c20.51,30.78,45,54.93,70,69.09l.95.54L277,335.34c-3.1,43.74-14.71,60.2-33.47,72.33,23.44-13.84,44.1-33.93,47.59-83.09l1.35-45.2Z" transform="translate(-64.65 3)"/><path id="Trazado_88" data-name="Trazado 88" class="cls-12" d="M292.45,279.38l-.95-.53c-25-14.17-49.51-38.32-70-69.1l-.27-.16-14.12,10.76.28.16c20.51,30.77,45,54.93,70,69.09l.95.54Z" transform="translate(-64.65 3)"/><path id="Trazado_89" data-name="Trazado 89" class="cls-8" d="M278.33,290.14,277,335.34c-3.1,43.74-14.71,60.2-33.47,72.33,23.44-13.84,44.1-33.93,47.59-83.08l1.35-45.21Z" transform="translate(-64.65 3)"/><path id="Trazado_90" data-name="Trazado 90" class="cls-5" d="M202.28,395.56c-30.89-51.24-46.43-77-50.18-133.26l-.85-29.52c19.83,9,38.85,11.82,56,8.41,17.12,23.19,36.14,42.29,56,56.22L262.35,326c-3.75,51.92-19.28,59.76-50.18,75.33l-4.94,2.5Z" transform="translate(-64.65 3)"/><path id="Trazado_91" data-name="Trazado 91" class="cls-17" d="M214.7,399.05l-4.94,2.5c-1.68-2.8-3.34-5.54-4.95-8.22-30.89-51.25-46.43-77-50.18-133.27l-.75-26.14-2.63-1.14.85,29.52c3.75,56.24,19.29,82,50.18,133.26l4.95,8.22,4.94-2.5c12.6-6.35,22.65-11.42,30.38-18.72C235.2,388.7,226,393.36,214.7,399.05Z" transform="translate(-64.65 3)"/><path id="Trazado_92" data-name="Trazado 92" class="cls-9" d="M278.27,288.7c-25-14.16-49.5-38.31-70-69.09l-.28-.16c-20.51,7.09-45,3-70-11.75l-.91,1c25,14.68,49.41,18.75,69.88,11.67l.28.16c20.51,30.78,45,54.93,70,69.09l.95.54-1.35,45.21c-2.57,36.3-11,53.81-24.52,65.65,14.12-11.86,22.93-29.33,25.56-66.54l1.35-45.21Z" transform="translate(-64.65 3)"/><g id="Grupo_21" data-name="Grupo 21"><path id="Trazado_93" data-name="Trazado 93" class="cls-18" d="M178.13,384.81c-27.75-16-50.32-55-50.32-86.8,0-15.57,5.32-27.22,15-32.8s22.64-4.37,36.33,3.53a82.33,82.33,0,0,1,13.46,9.86l-1.32,1.48a79.76,79.76,0,0,0-13.13-9.62c-13-7.52-25.25-8.78-34.35-3.53s-14,16.25-14,31.08c0,31.21,22.13,69.38,49.33,85.08Z" transform="translate(-64.65 3)"/></g><path id="Trazado_94" data-name="Trazado 94" class="cls-19" d="M182,385.69c-.08,1.63-1.2,2.34-2.5,1.59a5.14,5.14,0,0,1-2.22-4.32c.08-1.63,1.2-2.34,2.5-1.58A5.11,5.11,0,0,1,182,385.69Z" transform="translate(-64.65 3)"/><g id="Grupo_22" data-name="Grupo 22"><path id="Trazado_95" data-name="Trazado 95" class="cls-18" d="M194.56,281.42l-7.67-1.92a1,1,0,1,1,.48-1.92l4,1L190,274.71a1,1,0,0,1,1.86-.68Z" transform="translate(-64.65 3)"/></g><g id="Grupo_26" data-name="Grupo 26"><g id="Grupo_23" data-name="Grupo 23"><path id="Trazado_96" data-name="Trazado 96" class="cls-20" d="M151,307.59c.54-19.86,15-27.75,32.68-17.53,9.12,5.26,17.36,14.33,23.3,24.68l6.54-1.64c-7.44-13.5-18.06-25.4-29.84-32.2-22.29-12.87-40.44-2.7-40.71,22.64l5.23,4.75Z" transform="translate(-64.65 3)"/><path id="Trazado_97" data-name="Trazado 97" class="cls-20" d="M200,369.55c-4.83.44-10.43-.91-16.41-4.36-16.77-9.68-30.62-32.24-32.5-52l-8-4c0,.15-2.67.69-2.65.84,2.31,24.6,22.26,52.3,43.15,64.35,7.58,4.38,12.71,6.68,18.8,6,.26,0,2.48-.66,2.73-.69Z" transform="translate(-64.65 3)"/><path id="Trazado_98" data-name="Trazado 98" class="cls-20" d="M210,320.74c4,8.51,6.33,17.51,6.33,25.78,0,11.87-4.83,19.66-12.34,22.21l5.06,10c9.3-3.2,15.27-12.9,15.27-27.62,0-10.27-2.91-21.46-7.83-32Z" transform="translate(-64.65 3)"/></g><path id="Trazado_99" data-name="Trazado 99" class="cls-20" d="M194.87,337.21a27.9,27.9,0,0,1-5.74-6.88c-.95-1.58-.92-3.31,0-3.85a7.42,7.42,0,0,0,2.93-3.27c1,.28,2.25-.09,2.25-1.47a5.5,5.5,0,0,0-1.45-3.72c-.25-6-2.31-12.21-9.23-16.21-2.42-1.4-4.25-1.84-5.61-1.58-.32.06-3.07.78-3.34.92-1.87.93-.14,3-.28,6.21-.84-.18-1.46.63-1.46,2s1.25,3.19,2.26,4.08a32.56,32.56,0,0,0,2.93,6.65c.92,1.6,1,3.36,0,3.86a7.56,7.56,0,0,1-5.74.24,4.32,4.32,0,0,0-2.39-.1c-.21.06-2.67.7-2.86.79-1.28.64.18,1.58.18,3.77v6.21a4.18,4.18,0,0,0,1.9,3.27l26.62,17.62c.46.27,3.07-.67,3.41-.79a1.24,1.24,0,0,0,.68-1.28v-6.21A14.76,14.76,0,0,0,194.87,337.21Z" transform="translate(-64.65 3)"/><g id="Grupo_24" data-name="Grupo 24"><path id="Trazado_100" data-name="Trazado 100" class="cls-9" d="M149.16,308.1c.54-19.86,15-27.75,32.68-17.53,9.12,5.26,17.36,14.33,23.3,24.68l6.54-1.64c-7.44-13.5-18.07-25.4-29.84-32.2-22.29-12.87-40.44-2.7-40.71,22.64Z" transform="translate(-64.65 3)"/><path id="Trazado_101" data-name="Trazado 101" class="cls-9" d="M198.25,370.05c-4.83.44-10.42-.9-16.41-4.36-16.77-9.68-30.62-32.23-32.5-52l-8-4c2.15,24.7,19.49,53.06,40.49,65.19,7.9,4.56,15.28,6.22,21.53,5.34Z" transform="translate(-64.65 3)"/><path id="Trazado_102" data-name="Trazado 102" class="cls-9" d="M208.24,321.26c4,8.5,6.33,17.5,6.33,25.77,0,11.87-4.83,19.66-12.34,22.21l5.06,10c9.3-3.2,15.27-12.9,15.27-27.62,0-10.27-2.91-21.46-7.83-32Z" transform="translate(-64.65 3)"/></g><path id="Trazado_103" data-name="Trazado 103" class="cls-9" d="M193.08,337.72a28,28,0,0,1-5.74-6.87c-1-1.59-.92-3.32,0-3.86a7.31,7.31,0,0,0,2.93-3.27c1,.28,2.25-.09,2.25-1.47a5.52,5.52,0,0,0-1.45-3.72c-.25-6-2.31-12.21-9.23-16.21s-9-.18-9.23,5.55c-.83-.18-1.46.63-1.46,2s1.25,3.19,2.26,4.08a32.33,32.33,0,0,0,2.93,6.65c.92,1.6,1,3.36,0,3.86a7.59,7.59,0,0,1-5.75.24c-2.9-.88-5.06.88-5.06,4.46v6.21a4.2,4.2,0,0,0,1.89,3.28l28.81,16.63c1.05.6,1.9.12,1.9-1.08V348A14.78,14.78,0,0,0,193.08,337.72Z" transform="translate(-64.65 3)"/><g id="Grupo_25" data-name="Grupo 25"><path id="Trazado_104" data-name="Trazado 104" class="cls-21" d="M148.13,308.35c.55-19.85,15-27.75,32.69-17.52,9.11,5.26,17.36,14.33,23.3,24.68l6.53-1.64c-7.43-13.5-18.06-25.41-29.83-32.21-22.29-12.86-40.44-2.69-40.71,22.65Z" transform="translate(-64.65 3)"/><path id="Trazado_105" data-name="Trazado 105" class="cls-21" d="M197.23,370.31c-4.83.44-10.43-.9-16.41-4.36-16.77-9.68-30.62-32.23-32.5-52l-8-4c2.14,24.7,19.48,53.06,40.49,65.19,7.9,4.56,15.28,6.22,21.53,5.34Z" transform="translate(-64.65 3)"/><path id="Trazado_106" data-name="Trazado 106" class="cls-21" d="M207.22,321.51c4,8.51,6.33,17.51,6.33,25.78,0,11.87-4.83,19.66-12.35,22.21l5.06,10c9.31-3.2,15.28-12.9,15.28-27.62,0-10.27-2.91-21.46-7.83-32Z" transform="translate(-64.65 3)"/></g><path id="Trazado_107" data-name="Trazado 107" class="cls-21" d="M192.06,338a27.67,27.67,0,0,1-5.74-6.87c-.95-1.59-.92-3.32,0-3.85a7.37,7.37,0,0,0,2.93-3.27c1,.28,2.26-.09,2.26-1.47a5.5,5.5,0,0,0-1.45-3.72c-.25-6-2.31-12.21-9.24-16.21s-9-.19-9.23,5.55c-.83-.18-1.45.63-1.45,2a6.66,6.66,0,0,0,2.25,4.07,33.2,33.2,0,0,0,2.93,6.66c.93,1.6,1,3.36,0,3.85a7.52,7.52,0,0,1-5.74.25c-2.91-.88-5.07.87-5.07,4.46v6.21a4.18,4.18,0,0,0,1.9,3.27l28.81,16.63c1.05.61,1.9.12,1.9-1.08v-6.21A14.78,14.78,0,0,0,192.06,338Z" transform="translate(-64.65 3)"/></g></g><g id="Grupo_31" data-name="Grupo 31"><path id="Trazado_108" data-name="Trazado 108" class="cls-22" d="M460.21,605.68l-60.84-35c-6.33-3.66-5.53-10,1.78-14.26h0c7.31-4.22,31.49-4.25,37.82-.59l53.94,31.12c9.71,5.74.09,13.61-8,17.72h0C477.6,608.88,466.54,609.34,460.21,605.68Z" transform="translate(-64.65 3)"/><path id="Trazado_109" data-name="Trazado 109" class="cls-12" d="M483.92,532.13l-88-32.8v65.24c-.29,2.12.83,4.18,3.43,5.68l59.48,34.45c5.16,3,14.16,2.6,20.11-.83h0c3.14-1.82,4.81-4.12,4.91-6.34h0Z" transform="translate(-64.65 3)"/><path id="Trazado_110" data-name="Trazado 110" class="cls-16" d="M458.87,539.16l-59.48-34.45c-5.15-3-4.51-8.17,1.44-11.61h0c5.95-3.43,14.95-3.81,20.11-.83l59.48,34.45c5.15,3,4.51,8.17-1.44,11.6h0C473,541.76,464,542.13,458.87,539.16Z" transform="translate(-64.65 3)"/><path id="Trazado_111" data-name="Trazado 111" class="cls-9" d="M479,537.5c-6,3.43-15,3.81-20.11.83l-59.48-34.45c-2.15-1.24-3.28-2.86-3.44-4.59-.25,2.09.88,4.12,3.44,5.6l59.48,34.45c5.16,3,14.16,2.6,20.11-.84,3.46-2,5.11-4.59,4.88-7C483.61,533.6,482,535.77,479,537.5Z" transform="translate(-64.65 3)"/><g id="Grupo_30" data-name="Grupo 30"><path id="Trazado_112" data-name="Trazado 112" class="cls-8" d="M445.8,452.23h0a24.92,24.92,0,0,0-37.36,21.6v27h0a.06.06,0,0,1,0,0c0,2.65,3.66,4.78,8.18,4.78s8.18-2.13,8.18-4.76a.28.28,0,0,0,0-.09h.09V477.31a10.55,10.55,0,0,1,15.82-9.15h0A26.31,26.31,0,0,1,453.92,491v36H454c.09,2.58,3.71,4.66,8.17,4.66s8.13-2.1,8.18-4.71h0V494.71A49.05,49.05,0,0,0,445.8,452.23Z" transform="translate(-64.65 3)"/><g id="Grupo_28" data-name="Grupo 28"><path id="Trazado_113" data-name="Trazado 113" class="cls-12" d="M445.32,464.71a14.36,14.36,0,0,0-1.52-.76,28.74,28.74,0,0,1,12.67,23.76V530a10,10,0,0,0,3.19,1.17V489.52A28.71,28.71,0,0,0,445.32,464.71Z" transform="translate(-64.65 3)"/></g><g id="Grupo_29" data-name="Grupo 29"><path id="Trazado_114" data-name="Trazado 114" class="cls-14" d="M428.71,460.38a13.4,13.4,0,0,0-13.39,13.39V502l-.09,2.93c-.06.24,4.58-.14,4.69-.57l.09-2.92V473.2a13.41,13.41,0,0,1,9.46-12.8Z" transform="translate(-64.65 3)"/></g><path id="Trazado_115" data-name="Trazado 115" class="cls-12" d="M436.74,454.59a25.92,25.92,0,0,1,12.16,3.05,44.83,44.83,0,0,0-4.5-3,21.94,21.94,0,0,0-11-3c-10.65,0-22.15,8.47-22.15,22.15v.06C414.55,461.8,426,454.59,436.74,454.59Z" transform="translate(-64.65 3)"/><path id="Trazado_116" data-name="Trazado 116" class="cls-14" d="M464,499.65v31.63a10.09,10.09,0,0,0,4.09-1.42,2.57,2.57,0,0,0,.28-1.11V496.49C468.42,482.54,464,485.44,464,499.65Z" transform="translate(-64.65 3)"/></g><path id="Trazado_117" data-name="Trazado 117" class="cls-7" d="M440.53,550.7c0-5.11-3.61-11.34-8.06-13.91s-8.07-.51-8.07,4.6a17.52,17.52,0,0,0,4.08,10.4V568l8,4.61V556.39C438.89,556.2,440.53,554.15,440.53,550.7Z" transform="translate(-64.65 3)"/><path id="Trazado_118" data-name="Trazado 118" class="cls-17" d="M429.87,567.38V551.19a17.58,17.58,0,0,1-4.08-10.4c0-2.4.81-4.12,2.12-5-2.12.45-3.51,2.44-3.51,5.61a17.52,17.52,0,0,0,4.08,10.39V568l8,4.61v-1.4Z" transform="translate(-64.65 3)"/></g></g></svg>