<?xml version="1.0" encoding="utf-8"?>
<!-- Generator: Adobe Illustrator 24.0.2, SVG Export Plug-In . SVG Version: 6.00 Build 0)  -->
<svg version="1.1" id="Capa_1" xmlns="http://www.w3.org/2000/svg" xmlns:xlink="http://www.w3.org/1999/xlink" x="0px" y="0px"
	 viewBox="0 0 141.7 141.7" style="enable-background:new 0 0 141.7 141.7;" xml:space="preserve">
<style type="text/css">
	.st0{fill:#572A86;}
	.st1{fill:#00A3E2;}
</style>
<g>
	<g>
		<path class="st0" d="M56.5,130.2c-1.6,0-3-1.2-3.1-2.8c-0.2-1.7,1.1-3.2,2.8-3.4l79-7l-4.9-56.5l-0.9,0.1
			c-1.7,0.1-3.2-1.1-3.4-2.8c-0.1-1.7,1.1-3.2,2.8-3.4l4-0.3c0.8-0.1,1.6,0.2,2.3,0.7c0.6,0.5,1,1.3,1.1,2.1l5.4,62.6
			c0.1,1.7-1.1,3.2-2.8,3.4l-82.1,7.3C56.7,130.2,56.6,130.2,56.5,130.2z"/>
	</g>
	<g>
		<path class="st0" d="M132.4,82.2c-3.7,0-9.6-0.8-15.1-5.1c-1-0.8-1.9-1.6-2.7-2.5c-1.2-1.3-1.1-3.2,0.2-4.4
			c1.3-1.2,3.2-1.1,4.4,0.2c0.6,0.7,1.3,1.3,2,1.8c3.7,2.9,7.7,3.6,10.5,3.7l-1.4-15.3c-1.6,0.1-3.1-1-3.3-2.7
			c-0.2-1.7,1-3.3,2.7-3.5l3-0.4c0.8-0.1,1.7,0.1,2.4,0.6c0.7,0.5,1.1,1.3,1.2,2.2l2,21.8c0.2,1.7-1,3.1-2.7,3.4
			C134.8,82.1,133.8,82.2,132.4,82.2z"/>
	</g>
	<g>
		<path class="st0" d="M116.6,124.5c-1.5,0-2.9-1.1-3.1-2.7c-0.3-2.6-0.9-11.7,5.9-19.3c6.3-7,14.6-7.8,17-7.9
			c1.7,0,3.1,1.2,3.2,2.9l1.8,21.8c0.1,1.7-1.1,3.2-2.8,3.4l-21.8,1.9C116.8,124.5,116.7,124.5,116.6,124.5z M133.7,101.2
			c-2.7,0.6-6.5,2-9.7,5.5c-3.5,3.9-4.4,8.4-4.5,11.3l15.4-1.3L133.7,101.2z"/>
	</g>
	<g>
		<path class="st0" d="M79.7,112.4c-3.7,0-7.3-1.3-10.2-3.8c-1.3-1.1-1.5-3.1-0.4-4.4c1.1-1.3,3.1-1.5,4.4-0.4c2,1.7,4.4,2.5,7,2.2
			c5.2-0.5,9.1-5.1,8.7-10.3c-0.1-1.2-0.4-2.3-0.9-3.3c-0.7-1.5-0.1-3.4,1.5-4.1c1.5-0.7,3.4-0.1,4.1,1.5c0.8,1.7,1.3,3.5,1.5,5.4
			c0.8,8.7-5.7,16.3-14.3,17.1C80.6,112.4,80.1,112.4,79.7,112.4z"/>
	</g>
	<g>
		<path class="st0" d="M56.2,121.3c-0.9,0-1.9-0.4-2.5-1.2c-1-1.4-0.8-3.3,0.6-4.4l72.6-56L92.4,14.9L7.5,80.3l11.3,14.6
			c1,1.4,0.8,3.3-0.6,4.4c-1.4,1-3.3,0.8-4.4-0.6L0.6,81.6c-1-1.4-0.8-3.3,0.6-4.4L91,8.1c1.4-1,3.3-0.8,4.4,0.6l38.4,49.8
			c0.5,0.7,0.7,1.5,0.6,2.3c-0.1,0.8-0.5,1.6-1.2,2.1l-75.1,57.9C57.5,121.1,56.9,121.3,56.2,121.3z"/>
	</g>
	<g>
		<path class="st0" d="M92.7,36.4c-0.7,0-1.5,0-2.2-0.1c-10.2-1-15.9-8-17.4-10.2c-1-1.4-0.7-3.2,0.6-4.2L91,8.5
			c1.4-1,3.3-0.8,4.4,0.6l13.4,17.3c1,1.3,0.8,3.2-0.4,4.3C106.7,32,100.9,36.4,92.7,36.4z M80.1,24.8c2.1,2.1,5.8,4.8,11,5.3
			c4.7,0.4,8.4-1.1,10.8-2.5l-9.5-12.3L80.1,24.8z"/>
	</g>
	<g>
		<path class="st0" d="M113.8,77.1c-0.9,0-1.8-0.4-2.4-1.1c-1.7-2-7.1-9.3-5.4-19.4c1.5-9.3,8.1-14.5,10.1-15.8
			c1.4-0.9,3.2-0.7,4.2,0.7l13.3,17.4c1,1.4,0.8,3.3-0.6,4.4l-17.3,13.3C115.2,76.8,114.5,77.1,113.8,77.1z M117.4,47.7
			c-2,1.9-4.4,5.2-5.2,9.8c-0.9,5.2,0.9,9.4,2.3,12l12.3-9.5L117.4,47.7z"/>
	</g>
	<g>
		<path class="st0" d="M25.6,82.4c-1.7,0-3-1.3-3.1-3c-0.2-5.9-3.6-10.2-4.2-11c-1.1-1.3-0.9-3.3,0.4-4.4c1.3-1.1,3.3-0.9,4.4,0.4
			c1.3,1.5,5.4,7,5.7,14.8c0.1,1.7-1.3,3.2-3,3.2C25.6,82.4,25.6,82.4,25.6,82.4z"/>
	</g>
	<g>
		<path class="st0" d="M69.2,88.3c-4.7,0-9.4-2.1-12.5-6.1c-5.3-6.9-4-16.8,2.9-22.1c3.3-2.6,7.5-3.7,11.6-3.1
			c4.2,0.5,7.9,2.7,10.5,6c2.6,3.3,3.7,7.5,3.1,11.6c-0.5,4.2-2.7,7.9-6,10.5l0,0C75.9,87.3,72.6,88.3,69.2,88.3z M76.9,82.6
			L76.9,82.6L76.9,82.6z M69.2,63c-2.1,0-4.1,0.7-5.8,2c-4.2,3.2-4.9,9.2-1.7,13.4c3.2,4.2,9.2,4.9,13.4,1.7l0,0
			c2-1.6,3.3-3.8,3.6-6.3c0.3-2.5-0.3-5-1.9-7.1c-1.6-2-3.8-3.3-6.3-3.6C70,63,69.6,63,69.2,63z"/>
	</g>
	<g>
		<path class="st1" d="M36.4,94.9c-11,0-22-2.9-22-9.4c0-6.5,11.1-9.4,22-9.4c11,0,22,2.9,22,9.4C58.4,92,47.3,94.9,36.4,94.9z
			 M20.9,85.6c1.5,1.2,6.8,3.1,15.5,3.1s14-2,15.5-3.1c-1.5-1.2-6.8-3.1-15.5-3.1S22.4,84.4,20.9,85.6z M52.2,86L52.2,86L52.2,86z"
			/>
	</g>
	<g>
		<path class="st1" d="M36.4,107.8c-11,0-22-2.9-22-9.4V85.6c0-1.7,1.4-3.1,3.1-3.1s3.1,1.4,3.1,3.1v12.6c0.9,1.1,6.3,3.4,15.8,3.4
			s14.9-2.3,15.8-3.4V85.6c0-1.7,1.4-3.1,3.1-3.1s3.1,1.4,3.1,3.1v12.8C58.4,104.9,47.3,107.8,36.4,107.8z"/>
	</g>
	<g>
		<path class="st1" d="M36.4,120.9c-11,0-22-2.9-22-9.4V98.8c0-1.7,1.4-3.1,3.1-3.1s3.1,1.4,3.1,3.1v12.6c0.9,1.1,6.3,3.4,15.8,3.4
			s14.9-2.3,15.8-3.4V98.8c0-1.7,1.4-3.1,3.1-3.1s3.1,1.4,3.1,3.1v12.8C58.4,118,47.3,120.9,36.4,120.9z"/>
	</g>
	<g>
		<path class="st1" d="M36.4,134.3c-11,0-22-2.9-22-9.4v-12.8c0-1.7,1.4-3.1,3.1-3.1s3.1,1.4,3.1,3.1v12.6c0.9,1.1,6.3,3.4,15.8,3.4
			c9.4,0,14.9-2.3,15.8-3.4v-12.6c0-1.7,1.4-3.1,3.1-3.1s3.1,1.4,3.1,3.1V125C58.4,131.4,47.3,134.3,36.4,134.3z"/>
	</g>
</g>
</svg>
