<?xml version="1.0" encoding="utf-8"?>
<!-- Generator: Adobe Illustrator 24.0.2, SVG Export Plug-In . SVG Version: 6.00 Build 0)  -->
<svg version="1.1" id="Capa_1" xmlns="http://www.w3.org/2000/svg" xmlns:xlink="http://www.w3.org/1999/xlink" x="0px" y="0px"
	 viewBox="0 0 500 500" style="enable-background:new 0 0 500 500;" xml:space="preserve">
<style type="text/css">
	.st0{fill:#00A3E2;}
	.st1{fill:none;stroke:#00A3E2;stroke-width:7;stroke-linecap:round;stroke-linejoin:round;stroke-miterlimit:10;}
	.st2{fill:#572A86;}
</style>
<g>
	<g>
		<g>
			<path class="st0" d="M161.7,266.8c-0.6,0-1.3-0.1-1.9-0.2L56.1,247.9c-3.3-0.6-6.2-2.7-7.7-5.8L1.1,147.9
				c-1.3-2.5-1.5-5.5-0.6-8.2l9.4-28.4c1.9-5.6,7.9-8.7,13.6-6.8c5.6,1.9,8.7,7.9,6.8,13.6l-8,24.1l42.9,85.5l90.5,16.3l41-82.4
				l-42.8-85.4l-24.1-8c-5.6-1.9-8.7-8-6.8-13.6c1.9-5.6,8-8.7,13.6-6.8l28.3,9.4c2.7,0.9,4.9,2.8,6.2,5.4l47.2,94.2
				c1.5,3,1.5,6.6,0,9.6l-47,94.4C169.5,264.5,165.7,266.8,161.7,266.8z"/>
		</g>
		<g>
			<path class="st0" d="M215.8,364.5c-2.7,0-5.4-1-7.5-3.1c-7.5-7.3-13.6-15.8-18.4-25.2l-37.8-75.3c-2.7-5.3-0.5-11.8,4.8-14.4
				c5.3-2.7,11.8-0.5,14.4,4.8l37.8,75.3c3.7,7.3,8.4,13.9,14.2,19.5c4.2,4.2,4.3,11,0.1,15.2C221.4,363.4,218.6,364.5,215.8,364.5z
				"/>
		</g>
		<g>
			<path class="st1" d="M312.7,368.9"/>
		</g>
		<g>
			<path class="st0" d="M133.4,84.7c-3.9,0-7.7-2.2-9.6-5.9l-11.5-22.9c-2.7-5.3-0.5-11.8,4.8-14.4c5.3-2.7,11.8-0.5,14.4,4.8
				L143,69.1c2.7,5.3,0.5,11.8-4.8,14.4C136.6,84.3,135,84.7,133.4,84.7z"/>
		</g>
		<g>
			<path class="st0" d="M32.6,135.2c-3.9,0-7.7-2.2-9.6-5.9l-11.5-22.9c-2.7-5.3-0.5-11.8,4.8-14.4c5.3-2.7,11.8-0.5,14.4,4.8
				l11.5,22.9c2.7,5.3,0.5,11.8-4.8,14.4C35.9,134.8,34.2,135.2,32.6,135.2z"/>
		</g>
	</g>
	<g>
		<g>
			<path class="st2" d="M482.4,460.8H223.2c-9.7,0-17.6-7.9-17.6-17.6V106.7c0-9.7,7.9-17.6,17.6-17.6h28.4
				c5.9,0,10.7,4.8,10.7,10.8c0,5.9-4.8,10.8-10.7,10.8h-24.5v328.7h251.4V110.6h-25.9c-5.9,0-10.8-4.8-10.8-10.8
				c0-5.9,4.8-10.8,10.8-10.8h29.8c9.7,0,17.6,7.9,17.6,17.6v336.5C500,452.9,492.1,460.8,482.4,460.8z M482.4,110.6L482.4,110.6
				L482.4,110.6z"/>
		</g>
		<g>
			<path class="st2" d="M365.5,401H259.8c-5.9,0-10.8-4.8-10.8-10.8V133.5c0-9.7,7.9-17.6,17.6-17.6h17.6c5.9,0,10.8,4.8,10.8,10.8
				s-4.8,10.8-10.8,10.8h-13.7v242.1H361l74-75.3V137.4h-9c-5.9,0-10.8-4.8-10.8-10.8s4.8-10.8,10.8-10.8H439
				c9.7,0,17.6,7.9,17.6,17.6v175.1c0,2.8-1.1,5.5-3.1,7.5l-80.3,81.6C371.2,399.8,368.4,401,365.5,401z M439,137.4L439,137.4
				L439,137.4z"/>
		</g>
		<g>
			<path class="st2" d="M364.5,396.7c-5.9,0-10.8-4.8-10.8-10.8v-73.3c0-2.9,1.1-5.6,3.2-7.6c2-2,4.7-3.1,7.6-3.1c0,0,0,0,0,0
				l75.6,0.2c5.9,0,10.7,4.8,10.7,10.8c0,5.9-4.8,10.7-10.8,10.7c0,0,0,0,0,0l-64.8-0.1v62.6C375.2,391.9,370.4,396.7,364.5,396.7z"
				/>
		</g>
		<g>
			<path class="st0" d="M346.9,197C346.9,197,346.9,197,346.9,197l-50.1-0.1c-5.9,0-10.7-4.8-10.7-10.8c0-5.9,4.8-10.7,10.8-10.7
				c0,0,0,0,0,0l50.1,0.1c5.9,0,10.7,4.8,10.7,10.8C357.6,192.2,352.8,197,346.9,197z"/>
		</g>
		<g>
			<path class="st0" d="M346.9,236.2C346.9,236.2,346.9,236.2,346.9,236.2l-50.1-0.1c-5.9,0-10.7-4.8-10.7-10.8
				c0-5.9,4.8-10.7,10.8-10.7c0,0,0,0,0,0l50.1,0.1c5.9,0,10.7,4.8,10.7,10.8C357.6,231.4,352.8,236.2,346.9,236.2z"/>
		</g>
		<g>
			<path class="st0" d="M346.9,275.4C346.9,275.4,346.9,275.4,346.9,275.4l-50.1-0.1c-5.9,0-10.7-4.8-10.7-10.8
				c0-5.9,4.8-10.7,10.8-10.7c0,0,0,0,0,0l50.1,0.1c5.9,0,10.7,4.8,10.7,10.8C357.6,270.6,352.8,275.4,346.9,275.4z"/>
		</g>
		<g>
			<path class="st0" d="M405.7,197.3C405.7,197.3,405.7,197.3,405.7,197.3l-23.7-0.1c-5.9,0-10.7-4.9-10.7-10.8
				c0-5.9,4.8-10.7,10.8-10.7c0,0,0,0,0.1,0l23.6,0.1c5.9,0,10.7,4.9,10.7,10.8C416.4,192.5,411.6,197.3,405.7,197.3z"/>
		</g>
		<g>
			<path class="st0" d="M405.7,236.4C405.7,236.4,405.7,236.4,405.7,236.4l-23.7-0.1c-5.9,0-10.7-4.9-10.7-10.8
				c0-5.9,4.8-10.7,10.8-10.7c0,0,0,0,0.1,0l23.6,0.1c5.9,0,10.7,4.9,10.7,10.8C416.4,231.7,411.6,236.4,405.7,236.4z"/>
		</g>
		<g>
			<path class="st0" d="M405.7,275.7C405.7,275.7,405.7,275.7,405.7,275.7l-23.7-0.1c-5.9,0-10.7-4.9-10.7-10.8
				c0-5.9,4.8-10.7,10.8-10.7c0,0,0,0,0,0l23.6,0.1c5.9,0,10.7,4.9,10.7,10.8C416.4,270.9,411.6,275.7,405.7,275.7z"/>
		</g>
		<g>
			<path class="st0" d="M416.9,146.1H288.7c-5.9,0-10.8-4.8-10.8-10.8V74.8c0-5.9,4.8-10.8,10.8-10.8h39.7c5.9,0,10.8,4.8,10.8,10.8
				c0,5.9-4.8,10.8-10.8,10.8h-29v39.1h106.6V85.6h-28.8c-5.9,0-10.8-4.8-10.8-10.8c0-5.9,4.8-10.8,10.8-10.8h39.6
				c5.9,0,10.8,4.8,10.8,10.8v60.6C427.6,141.3,422.8,146.1,416.9,146.1z"/>
		</g>
		<g>
			<path class="st0" d="M377.2,85.1c-5.9,0-10.8-4.8-10.8-10.8c0-7.5-6.1-13.7-13.7-13.7s-13.7,6.1-13.7,13.7
				c0,5.9-4.8,10.8-10.8,10.8s-10.8-4.8-10.8-10.8c0-19.4,15.8-35.2,35.2-35.2S388,55,388,74.4C388,80.3,383.1,85.1,377.2,85.1z"/>
		</g>
	</g>
</g>
</svg>
