<?xml version="1.0" encoding="utf-8"?>
<!-- Generator: Adobe Illustrator 24.0.2, SVG Export Plug-In . SVG Version: 6.00 Build 0)  -->
<svg version="1.1" id="Capa_1" xmlns="http://www.w3.org/2000/svg" xmlns:xlink="http://www.w3.org/1999/xlink" x="0px" y="0px"
	 viewBox="0 0 141.7 141.7" style="enable-background:new 0 0 141.7 141.7;" xml:space="preserve">
<style type="text/css">
	.st0{fill:#572A86;}
	.st1{fill:#12A1DC;}
</style>
<g>
	<path class="st0" d="M18.9,112.8c-1.2,0-2.4-0.5-3.2-1.4c-19.2-22-17.4-56.2,3.9-74.8c20.7-18,53.3-15.8,72.8,4.8
		c1.6,1.7,1.4,4.2-0.3,5.7c-1.7,1.5-4.4,1.4-6-0.3c-16.3-17.3-43.7-19.2-60.9-4.2c-18,15.7-19.4,44.7-3.1,63.5
		c1.5,1.7,1.3,4.3-0.5,5.7C20.8,112.5,19.8,112.8,18.9,112.8z"/>
</g>
<g>
	<path class="st0" d="M88.6,117c-14.4,0-28.9-5.8-39.5-17c-1.6-1.7-1.4-4.2,0.3-5.7c1.7-1.5,4.4-1.4,6,0.3
		c16.3,17.3,43.7,19.2,60.9,4.2c18-15.7,19.4-44.7,3.1-63.5c-1.5-1.7-1.3-4.3,0.5-5.7c1.8-1.4,4.4-1.2,6,0.5
		c19.2,22,17.4,56.2-3.9,74.8C112.5,113,100.6,117,88.6,117z"/>
</g>
<g>
	<ellipse class="st1" cx="27.7" cy="119.2" rx="4.5" ry="4.5"/>
</g>
<g>
	<ellipse class="st1" cx="37.4" cy="125.3" rx="2.7" ry="2.7"/>
</g>
<g>
	<g>
		<ellipse class="st1" cx="112.2" cy="22.6" rx="4.5" ry="4.5"/>
	</g>
	<g>
		<ellipse class="st1" cx="102.5" cy="16.4" rx="2.7" ry="2.7"/>
	</g>
</g>
<g>
	<ellipse class="st1" cx="71.1" cy="71.5" rx="4.5" ry="4.5"/>
</g>
</svg>
