<?xml version="1.0" encoding="utf-8"?>
<!-- Generator: Adobe Illustrator 24.0.2, SVG Export Plug-In . SVG Version: 6.00 Build 0)  -->
<svg version="1.1" id="Capa_1" xmlns="http://www.w3.org/2000/svg" xmlns:xlink="http://www.w3.org/1999/xlink" x="0px" y="0px"
	 viewBox="0 0 141.7 141.7" style="enable-background:new 0 0 141.7 141.7;" xml:space="preserve">
<style type="text/css">
	.st0{fill:#572A86;}
	.st1{fill:#00A3E2;}
</style>
<g>
	<g>
		<path class="st0" d="M136.2,122.3L136.2,122.3l-130.7,0c-2.3,0-4.2-1.9-4.2-4.2c0-2.3,1.9-4.2,4.2-4.2l0,0l130.7,0
			c2.3,0,4.2,1.9,4.2,4.2C140.4,120.4,138.5,122.3,136.2,122.3z"/>
	</g>
	<g>
		<g>
			<path class="st0" d="M46.7,119.3c-5.4,0-10.8-2.1-15-6.2c-1.6-1.6-1.6-4.3,0-5.9l43.3-43.3c0.9-0.9,2.3-1.4,3.6-1.2l12.1,1.9
				c1.6,0.2,2.9,1.3,3.3,2.9c0.5,1.5,0.1,3.2-1,4.3l-5.9,5.8l0.5,7.6c0.1,1.2-0.4,2.4-1.2,3.2l-24.8,24.8
				C57.5,117.3,52.1,119.3,46.7,119.3z M41.1,109.7c4.8,2.3,10.7,1.5,14.6-2.5l23.5-23.5l-0.5-7.6c-0.1-1.2,0.4-2.4,1.2-3.3l1.3-1.3
				l-1.8-0.3L41.1,109.7z"/>
		</g>
		<g>
			<path class="st1" d="M99.6,73.4c-0.1,0-0.2,0-0.3,0l-22.2-1.8c-1.6-0.1-3-1.2-3.6-2.7c-0.6-1.5-0.2-3.3,1-4.4l41.3-41.3
				c4.9-4.9,13-4.9,17.9,0c4.9,4.9,4.9,13,0,17.9l-31.1,31.1C101.8,73,100.7,73.4,99.6,73.4z M86.8,64L98,64.9l29.8-29.8
				c1.7-1.7,1.7-4.4,0-6.1c-1.7-1.7-4.4-1.7-6.1,0L86.8,64z"/>
		</g>
		<g>
			<path class="st1" d="M124.4,48.5c-1.8,0-3.4-1.2-4-3l-5.6-18.2c-0.7-2.2,0.5-4.6,2.8-5.2c2.2-0.7,4.6,0.5,5.2,2.8l5.6,18.2
				c0.7,2.2-0.5,4.6-2.8,5.2C125.2,48.4,124.8,48.5,124.4,48.5z"/>
		</g>
		<g>
			<path class="st1" d="M111.3,61.5c-1.9,0-3.6-1.3-4.1-3.2l-4.7-19.1c-0.6-2.2,0.8-4.5,3.1-5.1c2.2-0.6,4.5,0.8,5.1,3.1l4.7,19.1
				c0.6,2.2-0.8,4.5-3.1,5.1C112,61.5,111.6,61.5,111.3,61.5z"/>
		</g>
	</g>
</g>
</svg>
