<?xml version="1.0" encoding="utf-8"?>
<!-- Generator: Adobe Illustrator 24.0.2, SVG Export Plug-In . SVG Version: 6.00 Build 0)  -->
<svg version="1.1" id="Capa_1" xmlns="http://www.w3.org/2000/svg" xmlns:xlink="http://www.w3.org/1999/xlink" x="0px" y="0px"
	 viewBox="0 0 141.7 141.7" style="enable-background:new 0 0 141.7 141.7;" xml:space="preserve">
<style type="text/css">
	.st0{fill:#572A86;}
	.st1{fill:#00A3E2;}
</style>
<g>
	<g>
		<path class="st0" d="M56.6,130c-1.6,0-2.9-1.2-3.1-2.8c-0.2-1.7,1.1-3.2,2.8-3.4l78.7-7l-4.9-56.2l-0.9,0.1
			c-1.7,0.1-3.2-1.1-3.4-2.8c-0.1-1.7,1.1-3.2,2.8-3.4l4-0.3c1.7-0.1,3.2,1.1,3.4,2.8l5.4,62.4c0.1,1.7-1.1,3.2-2.8,3.4L56.9,130
			C56.8,130,56.7,130,56.6,130z"/>
	</g>
	<g>
		<path class="st0" d="M132.1,82.2c-3.7,0-9.6-0.8-15-5c-1-0.8-1.9-1.6-2.7-2.5c-1.2-1.3-1.1-3.2,0.2-4.4c1.3-1.2,3.2-1.1,4.4,0.2
			c0.6,0.7,1.3,1.3,2,1.8c3.7,2.9,7.7,3.6,10.4,3.7L130,60.7c-1.6,0.1-3.1-1-3.3-2.7c-0.2-1.7,1-3.3,2.6-3.5l3-0.4
			c0.8-0.1,1.7,0.1,2.3,0.6c0.7,0.5,1.1,1.3,1.2,2.1l2,21.7c0.2,1.6-1,3.1-2.7,3.3C134.5,82,133.5,82.2,132.1,82.2z"/>
	</g>
	<g>
		<path class="st0" d="M116.4,124.2c-1.5,0-2.9-1.1-3.1-2.7c-0.3-2.6-0.9-11.6,5.9-19.2c6.3-7,14.6-7.8,16.9-7.9c0,0,0.1,0,0.1,0
			c1.6,0,3,1.2,3.1,2.8l1.8,21.7c0.1,1.7-1.1,3.2-2.8,3.3l-21.7,1.9C116.6,124.2,116.5,124.2,116.4,124.2z M133.5,101
			c-2.7,0.6-6.5,2-9.6,5.4c-3.5,3.9-4.3,8.3-4.5,11.3l15.4-1.3L133.5,101z"/>
	</g>
	<g>
		<path class="st0" d="M79.6,112.2c-3.7,0-7.3-1.3-10.1-3.7c-1.3-1.1-1.5-3.1-0.4-4.4c1.1-1.3,3.1-1.5,4.4-0.4
			c1.9,1.7,4.4,2.5,7,2.2c2.5-0.2,4.8-1.4,6.5-3.4c1.6-1.9,2.4-4.4,2.2-6.9c-0.1-1.1-0.4-2.3-0.9-3.3c-0.7-1.5-0.1-3.4,1.5-4.1
			c1.5-0.7,3.4-0.1,4.1,1.5c0.8,1.7,1.3,3.5,1.5,5.4c0.4,4.2-0.9,8.2-3.6,11.5c-2.7,3.2-6.5,5.2-10.7,5.5
			C80.6,112.2,80.1,112.2,79.6,112.2z"/>
	</g>
	<g>
		<path class="st0" d="M56.3,121.1c-0.9,0-1.8-0.4-2.5-1.2c-1-1.4-0.8-3.3,0.6-4.3l72.3-55.7L92.3,15.1L7.8,80.2L19,94.8
			c1,1.4,0.8,3.3-0.6,4.3s-3.3,0.8-4.3-0.6L1,81.6c-0.5-0.7-0.7-1.5-0.6-2.3s0.5-1.6,1.2-2.1L91,8.3c1.4-1,3.3-0.8,4.3,0.6
			l38.2,49.6c1,1.4,0.8,3.3-0.6,4.3l-74.8,57.6C57.6,120.9,56.9,121.1,56.3,121.1z"/>
	</g>
	<g>
		<path class="st0" d="M92.6,36.5c-0.7,0-1.4,0-2.2-0.1c-10.2-1-15.8-8-17.3-10.1c-1-1.4-0.7-3.2,0.6-4.2L90.9,8.8
			c1.4-1,3.3-0.8,4.3,0.6l13.4,17.2c1,1.3,0.8,3.2-0.4,4.3C106.5,32.2,100.7,36.5,92.6,36.5z M80,25c2.1,2.1,5.7,4.8,10.9,5.3
			c4.7,0.4,8.4-1.1,10.8-2.5l-9.5-12.2L80,25z"/>
	</g>
	<g>
		<path class="st0" d="M113.6,77c-0.9,0-1.8-0.4-2.4-1.1c-1.7-2-7-9.3-5.4-19.4c1.5-9.2,8.1-14.4,10-15.8c1.4-0.9,3.2-0.6,4.2,0.7
			l13.2,17.3c1,1.4,0.8,3.3-0.6,4.3l-17.2,13.3C115,76.8,114.3,77,113.6,77z M117.2,47.8c-2,1.9-4.4,5.2-5.2,9.8
			c-0.8,5.1,0.8,9.4,2.3,11.9l12.2-9.4L117.2,47.8z"/>
	</g>
	<g>
		<path class="st0" d="M25.8,82.4c-1.7,0-3-1.3-3.1-3c-0.2-5.9-3.6-10.1-4.2-10.9c-1.1-1.3-0.9-3.3,0.4-4.4c1.3-1.1,3.3-0.9,4.4,0.4
			c1.3,1.5,5.4,6.9,5.7,14.7c0.1,1.7-1.3,3.1-3,3.2C25.8,82.4,25.8,82.4,25.8,82.4z"/>
	</g>
	<g>
		<path class="st0" d="M69.2,88.2c-4.7,0-9.4-2.1-12.5-6.1c-2.6-3.3-3.7-7.4-3.1-11.6c0.5-4.2,2.7-7.9,6-10.4
			c3.3-2.6,7.4-3.7,11.6-3.1c4.2,0.5,7.9,2.7,10.4,6c5.3,6.9,4,16.7-2.9,22l0,0C75.9,87.2,72.5,88.2,69.2,88.2z M76.9,82.5
			L76.9,82.5L76.9,82.5z M69.2,63c-2.1,0-4.1,0.7-5.8,2c-2,1.5-3.3,3.8-3.6,6.3c-0.3,2.5,0.3,5,1.9,7c3.2,4.1,9.2,4.9,13.3,1.7l0,0
			c4.1-3.2,4.9-9.2,1.7-13.3c-1.5-2-3.8-3.3-6.3-3.6C70,63.1,69.6,63,69.2,63z"/>
	</g>
	<g>
		<path class="st1" d="M36.5,94.8c-10.9,0-21.9-2.9-21.9-9.3s11-9.3,21.9-9.3s21.9,2.9,21.9,9.3S47.4,94.8,36.5,94.8z M21.1,85.5
			c1.5,1.2,6.7,3.1,15.4,3.1c8.7,0,14-2,15.4-3.1c-1.5-1.2-6.7-3.1-15.4-3.1C27.8,82.4,22.6,84.4,21.1,85.5z M52.3,85.9L52.3,85.9
			L52.3,85.9z"/>
	</g>
	<g>
		<path class="st1" d="M36.5,107.6c-10.9,0-21.9-2.9-21.9-9.3V85.5c0-1.7,1.4-3.1,3.1-3.1c1.7,0,3.1,1.4,3.1,3.1V98
			c0.9,1.1,6.3,3.4,15.7,3.4c9.4,0,14.8-2.3,15.7-3.4V85.5c0-1.7,1.4-3.1,3.1-3.1c1.7,0,3.1,1.4,3.1,3.1v12.8
			C58.4,104.7,47.4,107.6,36.5,107.6z"/>
	</g>
	<g>
		<path class="st1" d="M36.5,120.7c-10.9,0-21.9-2.9-21.9-9.3V98.6c0-1.7,1.4-3.1,3.1-3.1c1.7,0,3.1,1.4,3.1,3.1v12.5
			c0.9,1.1,6.3,3.4,15.7,3.4s14.8-2.3,15.7-3.4V98.6c0-1.7,1.4-3.1,3.1-3.1c1.7,0,3.1,1.4,3.1,3.1v12.8
			C58.4,117.8,47.4,120.7,36.5,120.7z"/>
	</g>
	<g>
		<path class="st1" d="M36.5,134c-10.9,0-21.9-2.9-21.9-9.3V112c0-1.7,1.4-3.1,3.1-3.1c1.7,0,3.1,1.4,3.1,3.1v12.5
			c0.9,1.1,6.3,3.4,15.7,3.4s14.8-2.3,15.7-3.4V112c0-1.7,1.4-3.1,3.1-3.1c1.7,0,3.1,1.4,3.1,3.1v12.8C58.4,131.2,47.4,134,36.5,134
			z"/>
	</g>
</g>
</svg>
