<?xml version="1.0" encoding="utf-8"?>
<!-- Generator: Adobe Illustrator 24.0.2, SVG Export Plug-In . SVG Version: 6.00 Build 0)  -->
<svg version="1.1" id="Capa_1" xmlns="http://www.w3.org/2000/svg" xmlns:xlink="http://www.w3.org/1999/xlink" x="0px" y="0px"
	 viewBox="0 0 141.7 141.7" style="enable-background:new 0 0 141.7 141.7;" xml:space="preserve">
<style type="text/css">
	.st0{fill:#572A86;}
	.st1{fill:#00A3E2;}
</style>
<g>
	<g>
		<path class="st0" d="M68.3,141.5H35.9v-14.2c-1.6-0.8-3.2-1.7-4.7-2.7l-12.1,7L2.8,103.5l12-6.9c-0.1-1-0.1-2-0.1-3
			c0-1.1,0-2.2,0.1-3.3l-12-6.9L19,55.4l12.3,7.1c1.4-0.9,2.8-1.8,4.3-2.5l0-13.8l32.5,0l0,13.7c1.7,0.8,3.3,1.7,4.8,2.7l12-6.9
			l16.2,28.1l-11.7,6.8c0.1,1,0.1,2.1,0.1,3.1c0,0.9,0,1.9-0.1,2.8l12.2,7.1l-16.2,28.1l-12.3-7.1c-1.6,1.1-3.2,2-4.9,2.8V141.5z
			 M41.5,135.9h21.2v-12.2l1.7-0.7c2.4-1,4.8-2.4,6.9-4l1.5-1.1l10.6,6.1L94,105.6l-10.6-6.1l0.2-1.8c0.2-1.3,0.2-2.7,0.2-4
			c0-1.4-0.1-2.9-0.3-4.3l-0.2-1.9l10.1-5.8L82.8,63.3l-10.3,5.9l-1.5-1.1c-2.1-1.6-4.4-2.9-6.8-3.9l-1.7-0.7l0-11.7l-21.2,0l0,11.9
			l-1.7,0.7c-2.3,1-4.4,2.2-6.4,3.7l-1.5,1.1L21.1,63L10.5,81.4l10.4,6l-0.3,1.9c-0.2,1.4-0.3,2.9-0.3,4.4c0,1.4,0.1,2.8,0.3,4.1
			l0.2,1.9l-10.3,6L21.1,124l10.4-6l1.5,1.1c2.1,1.6,4.4,2.9,6.8,3.9l1.7,0.7V135.9z"/>
	</g>
	<g>
		<path class="st0" d="M52.2,113.6c-10.9,0-19.8-8.9-19.8-19.8c0-10.9,8.9-19.8,19.8-19.8S72,83,72,93.9
			C72,104.7,63.1,113.6,52.2,113.6z M52.2,79.7c-7.8,0-14.2,6.3-14.2,14.2S44.4,108,52.2,108s14.2-6.3,14.2-14.2S60,79.7,52.2,79.7z
			"/>
	</g>
	<g>
		<path class="st0" d="M114,60.5h-22v-9.1c-0.6-0.3-1.2-0.7-1.8-1.1l-7.7,4.5l-11-19l7.7-4.4c0-0.4,0-0.8,0-1.2c0-0.5,0-0.9,0-1.4
			l-7.7-4.4l11-19l7.9,4.6c0.5-0.3,1-0.6,1.6-0.9l0-8.9l22,0v8.7c0.6,0.3,1.3,0.7,1.9,1.1l7.7-4.4l11,19l-7.5,4.3c0,0.4,0,0.9,0,1.3
			c0,0.4,0,0.7,0,1.1l7.8,4.5l-11,19l-7.8-4.5c-0.6,0.4-1.3,0.8-1.9,1.1V60.5z M97.7,54.9h10.8v-7.1l1.7-0.7c1.4-0.6,2.7-1.4,4-2.3
			l1.5-1.1l6.1,3.5l5.4-9.3l-6.1-3.5l0.2-1.8c0.1-0.8,0.1-1.5,0.1-2.3c0-0.8-0.1-1.6-0.2-2.5l-0.2-1.9l5.8-3.4l-5.4-9.3l-5.9,3.4
			l-1.5-1.1c-1.2-0.9-2.5-1.7-3.9-2.2l-1.7-0.7V5.8l-10.8,0l0,6.9l-1.7,0.7c-1.3,0.6-2.5,1.3-3.7,2.1l-1.5,1.1L84.5,13l-5.4,9.3
			l6,3.5l-0.3,1.9c-0.1,0.8-0.2,1.7-0.2,2.5c0,0.8,0.1,1.6,0.2,2.4l0.2,1.9l-6,3.4l5.4,9.3l6-3.5l1.5,1.1c1.2,0.9,2.5,1.7,3.9,2.2
			l1.7,0.7V54.9z"/>
	</g>
	<g>
		<path class="st0" d="M103.1,43.5c-7.2,0-13.1-5.9-13.1-13.1c0-7.2,5.9-13.1,13.1-13.1c7.2,0,13.1,5.9,13.1,13.1
			C116.3,37.6,110.4,43.5,103.1,43.5z M103.1,22.8c-4.2,0-7.5,3.4-7.5,7.5c0,4.2,3.4,7.5,7.5,7.5c4.2,0,7.5-3.4,7.5-7.5
			C110.7,26.2,107.3,22.8,103.1,22.8z"/>
	</g>
	<g>
		<path class="st1" d="M11.8,45.7c-0.8,0-1.6-0.4-2.2-1.1c-1-1.2-0.7-3,0.5-3.9c1.9-1.5,3.9-2.9,5.9-4.2
			c10.6-6.6,22.8-10.1,35.4-10.1c2,0,4,0.1,6,0.3c1.5,0.1,2.7,1.5,2.5,3c-0.1,1.5-1.5,2.7-3,2.5c-1.8-0.2-3.7-0.2-5.5-0.2
			c-11.5,0-22.7,3.2-32.4,9.3c-1.9,1.2-3.7,2.5-5.4,3.8C13.1,45.5,12.4,45.7,11.8,45.7z"/>
	</g>
	<g>
		<path class="st1" d="M47.2,43.7c-0.7,0-1.3-0.2-1.9-0.7c-1.2-1-1.3-2.8-0.2-4l9.1-10.4l-10-9c-1.2-1-1.2-2.8-0.2-4
			c1-1.2,2.8-1.2,4-0.2L60,26.4c1.1,1,1.2,2.8,0.2,3.9l-11,12.4C48.7,43.4,48,43.7,47.2,43.7z"/>
	</g>
	<g>
		<path class="st1" d="M108.2,80.4c-1.4,0-2.6-1-2.8-2.5c-0.2-1.5,0.9-2.9,2.4-3.1c10.4-1.3,19.9-7,26-15.6c0.9-1.3,2.6-1.6,3.9-0.7
			c1.3,0.9,1.6,2.6,0.7,3.9c-7,9.9-17.9,16.4-29.8,17.9C108.4,80.4,108.3,80.4,108.2,80.4z"/>
	</g>
	<g>
		<path class="st1" d="M120.5,89.8c-0.5-0.1-0.9-0.2-1.3-0.5L106.6,80c-1.2-0.9-1.5-2.6-0.6-3.8l8.7-12.7c0.9-1.3,2.6-1.6,3.9-0.7
			c1.3,0.9,1.6,2.6,0.7,3.9l-7.2,10.4l10.4,7.7c1.2,0.9,1.5,2.7,0.6,3.9C122.5,89.6,121.5,90,120.5,89.8z"/>
	</g>
</g>
</svg>
