<svg xmlns="http://www.w3.org/2000/svg" viewBox="0 0 174.22 138.07"><defs><style>.cls-1,.cls-4{fill:none;}.cls-1{stroke:#ff86bc;}.cls-2{fill:#ff86bc;}.cls-3{fill:#1d1d1b;stroke:#1d1d1b;stroke-width:2px;}.cls-3,.cls-4{stroke-miterlimit:10;}.cls-4{stroke:#e6297b;}</style></defs><title>Recurso 2</title><g id="Capa_2" data-name="Capa 2"><g id="Capa_1-2" data-name="Capa 1"><path class="cls-1" d="M92.1,76.58a58.36,58.36,0,0,0,13.64,12.63,52,52,0,0,0,15.66,7.33,50.1,50.1,0,0,0,26.53,0,36.5,36.5,0,0,0,15.66-8.34,32.59,32.59,0,0,0,7.83-11.11c2-4.91,2.11-9,2.28-14.91a80.77,80.77,0,0,0-.76-12.63c-.68-5-1.27-6.2-4-18.19-2.4-10.34-2.66-12.49-2.78-13.64a61.63,61.63,0,0,1,.25-15.16"/><path class="cls-1" d="M5.19.29A34,34,0,0,1,10.5,11.91c2.26,9.47-.27,17.75-2,23.24C6,43,4.37,42.51,2.41,49.8c-1.18,4.43-2.84,10.91-1.26,19A37.57,37.57,0,0,0,10,86.18,39.69,39.69,0,0,0,29.44,97.8a45.72,45.72,0,0,0,27.29-1A38.67,38.67,0,0,0,70.12,89,38,38,0,0,0,78.45,78.1"/><path class="cls-1" d="M10,86.18q-.16,6.12,0,12.63A238,238,0,0,0,14.29,138"/><path class="cls-1" d="M161.57,137.12c.86-5.75,1.54-10.54,2-14,1-6.95,1.45-10.51,1.9-14.91.69-6.78.93-11.78,1-13.39.18-4,.24-7.44.25-10.1"/><ellipse class="cls-2" cx="137.98" cy="68.18" rx="8" ry="10"/><line class="cls-3" x1="137.98" y1="96.12" x2="137.98" y2="78.18"/><line class="cls-3" x1="137.98" y1="58.18" x2="137.98" y2="40.25"/><line class="cls-3" x1="112.05" y1="68.18" x2="129.99" y2="68.18"/><line class="cls-3" x1="145.98" y1="68.18" x2="163.92" y2="68.18"/><ellipse class="cls-2" cx="36.98" cy="68.18" rx="8" ry="10"/><line class="cls-3" x1="36.98" y1="96.12" x2="36.98" y2="78.18"/><line class="cls-3" x1="36.98" y1="58.18" x2="36.98" y2="40.25"/><line class="cls-3" x1="11.05" y1="68.18" x2="28.99" y2="68.18"/><line class="cls-3" x1="44.98" y1="68.18" x2="62.91" y2="68.18"/><path class="cls-4" d="M34.55,70.84c.51,1.44,1.44,2.33,2.45,2.33s2.09-1.06,2.55-2.71"/><path class="cls-4" d="M135.48,70.84c.51,1.44,1.44,2.33,2.44,2.33s2.1-1.06,2.56-2.71"/></g></g></svg>