<?xml version="1.0" encoding="utf-8"?>
<!-- Generator: Adobe Illustrator 24.0.2, SVG Export Plug-In . SVG Version: 6.00 Build 0)  -->
<svg version="1.1" id="Capa_1" xmlns="http://www.w3.org/2000/svg" xmlns:xlink="http://www.w3.org/1999/xlink" x="0px" y="0px"
	 viewBox="0 0 141.7 141.7" style="enable-background:new 0 0 141.7 141.7;" xml:space="preserve">
<style type="text/css">
	.st0{fill:#572A86;}
	.st1{fill:#00A3E2;}
</style>
<g>
	<g>
		<path class="st0" d="M77.2,132.2H33.1c-5.3,0-9.5-4.3-9.5-9.5V56c0-0.7,0.2-1.3,0.5-1.9L41.7,25c0.6-1.1,1.8-1.7,3.1-1.7h37.6
			c1.3,0,2.4,0.7,3.1,1.8l17.4,29.2c0.3,0.6,0.5,1.2,0.5,1.8v43.4c0,2-1.6,3.6-3.6,3.6s-3.6-1.6-3.6-3.6V57L80.3,30.4H46.8L30.7,57
			v65.7c0,1.3,1.1,2.4,2.4,2.4h44.2c2,0,3.6,1.6,3.6,3.6C80.8,130.6,79.2,132.2,77.2,132.2z"/>
	</g>
	<g>
		<g>
			<path class="st0" d="M88,140c-3.6,0-7-1.4-9.6-4c-5.3-5.3-5.3-13.9,0-19.2L95,100.2c5.3-5.3,13.9-5.3,19.2,0
				c5.3,5.3,5.3,13.9,0,19.2l-16.7,16.7C95,138.6,91.6,140,88,140z M104.6,103.4c-1.6,0-3.3,0.6-4.5,1.9l-16.7,16.7
				c-2.5,2.5-2.5,6.6,0,9.1c1.2,1.2,2.8,1.9,4.5,1.9c1.7,0,3.3-0.7,4.5-1.9l16.7-16.7c2.5-2.5,2.5-6.6,0-9.1
				C107.9,104,106.3,103.4,104.6,103.4z"/>
		</g>
		<g>
			<path class="st0" d="M102.4,127.8c-0.9,0-1.8-0.4-2.5-1.1l-13.2-13.2c-1.4-1.4-1.4-3.7,0-5.1c1.4-1.4,3.7-1.4,5.1,0l13.2,13.2
				c1.4,1.4,1.4,3.7,0,5.1C104.2,127.5,103.3,127.8,102.4,127.8z"/>
		</g>
	</g>
	<g>
		<path class="st0" d="M99.7,103.3H27.1c-2,0-3.6-1.6-3.6-3.6V56c0-2,1.6-3.6,3.6-3.6h72.6c2,0,3.6,1.6,3.6,3.6v43.7
			C103.3,101.7,101.7,103.3,99.7,103.3z M30.7,96.1h65.5V59.6H30.7V96.1z"/>
	</g>
	<g>
		<g>
			<path class="st1" d="M63.5,90.4c-2,0-3.6-1.6-3.6-3.6v-18c0-2,1.6-3.6,3.6-3.6s3.6,1.6,3.6,3.6v18C67.1,88.8,65.5,90.4,63.5,90.4
				z"/>
		</g>
		<g>
			<path class="st1" d="M54.2,81.5c-2,0-3.6-1.6-3.6-3.6c0-2,1.6-3.6,3.6-3.6l18.4,0c0,0,0,0,0,0c2,0,3.6,1.6,3.6,3.6
				c0,2-1.6,3.6-3.6,3.6L54.2,81.5C54.2,81.5,54.2,81.5,54.2,81.5z"/>
		</g>
	</g>
	<g>
		<path class="st1" d="M86.6,30.4H40.3c-3.2,0-5.8-2.6-5.8-5.8V7.5c0-3.2,2.6-5.8,5.8-5.8h46.3c3.2,0,5.8,2.6,5.8,5.8v17.1
			C92.4,27.8,89.8,30.4,86.6,30.4z M41.6,23.3h43.7V8.9H41.6V23.3z"/>
	</g>
</g>
</svg>
