<?xml version="1.0" encoding="utf-8"?>
<!-- Generator: Adobe Illustrator 24.0.2, SVG Export Plug-In . SVG Version: 6.00 Build 0)  -->
<svg version="1.1" id="Capa_1" xmlns="http://www.w3.org/2000/svg" xmlns:xlink="http://www.w3.org/1999/xlink" x="0px" y="0px"
	 viewBox="0 0 226.8 226.8" style="enable-background:new 0 0 226.8 226.8;" xml:space="preserve">
<style type="text/css">
	.st0{fill:#00A3E2;}
	.st1{fill:#572A86;}
</style>
<g>
	<g>
		<path class="st0" d="M79.4,202.7H76c-2.9,0-5.3-2.4-5.3-5.3c0-2.3,1.4-4.2,3.4-4.9v-18.9c0-5.8-4.8-10.6-10.6-10.6
			s-10.6,4.8-10.6,10.6v18.9c2,0.7,3.4,2.7,3.4,4.9c0,2.9-2.4,5.3-5.3,5.3h-3.4c-2.9,0-5.3-2.4-5.3-5.3v-23.8
			c0-11.6,9.5-21.1,21.1-21.1s21.1,9.5,21.1,21.1v23.8C84.6,200.3,82.3,202.7,79.4,202.7z"/>
	</g>
	<g>
		<path class="st0" d="M63.5,163c-2.9,0-5.3-2.4-5.3-5.3v-47.6c0-2.9,2.4-5.3,5.3-5.3c2.9,0,5.3,2.4,5.3,5.3v47.6
			C68.8,160.7,66.4,163,63.5,163z"/>
	</g>
	<g>
		<path class="st0" d="M163.2,155c-2.9,0-5.3-2.4-5.3-5.3v-39.5c0-2.9,2.4-5.3,5.3-5.3c2.9,0,5.3,2.4,5.3,5.3v39.5
			C168.5,152.6,166.1,155,163.2,155z"/>
	</g>
	<g>
		<path class="st0" d="M163.2,181.1c-9,0-16.3-7.3-16.3-16.3c0-9,7.3-16.3,16.3-16.3c9,0,16.3,7.3,16.3,16.3
			C179.5,173.8,172.2,181.1,163.2,181.1z M163.2,159.1c-3.2,0-5.7,2.6-5.7,5.7c0,3.2,2.6,5.7,5.7,5.7c3.2,0,5.7-2.6,5.7-5.7
			C169,161.6,166.4,159.1,163.2,159.1z"/>
	</g>
	<g>
		<path class="st1" d="M112.9,55.4c-9,0-16.3-7.3-16.3-16.3c0-9,7.3-16.3,16.3-16.3s16.3,7.3,16.3,16.3
			C129.2,48.1,121.9,55.4,112.9,55.4z M112.9,33.4c-3.2,0-5.7,2.6-5.7,5.7c0,3.2,2.6,5.7,5.7,5.7s5.7-2.6,5.7-5.7
			C118.7,36,116.1,33.4,112.9,33.4z"/>
	</g>
	<g>
		<path class="st1" d="M162.4,44.6C162.4,44.6,162.4,44.6,162.4,44.6l-38.5-0.2c-2.9,0-5.2-2.4-5.2-5.3c0-2.9,2.3-5.3,5.3-5.2
			l38.4,0.2c2.9,0,5.2,2.4,5.2,5.3C167.6,42.3,165.3,44.6,162.4,44.6z"/>
	</g>
	<g>
		<path class="st1" d="M64.4,44.6c-2.9,0-5.2-2.3-5.3-5.2c0-2.9,2.3-5.3,5.2-5.3l37.5-0.1c0,0,0,0,0,0c2.9,0,5.2,2.3,5.3,5.2
			c0,2.9-2.3,5.3-5.2,5.3L64.4,44.6C64.4,44.6,64.4,44.6,64.4,44.6z"/>
	</g>
	<g>
		<path class="st1" d="M6.6,225c-1.6,0-3.2-0.8-4.2-2.1c-1-1.3-1.3-3-0.9-4.6c1.8-6.6,3.8-12.8,5.5-18.2c2.1-6.7,4-12.5,5-17.2
			c8.4-37,20.6-51.2,25.3-56.6l0.2-0.2c3.4-3.9,7.2-7.8,11.4-11.4c4.1-3.5,8.3-6.7,11.9-8.8c2.1-1.2,4.7-0.9,6.4,0.8
			c2.9,2.8,6.4,5.6,10.1,8c7.6,5,20.1,10.9,36.1,10.9c0,0,0,0,0,0c25,0,41.6-14.5,46.2-18.9c1.7-1.7,4.4-2,6.4-0.8
			c5.7,3.4,15.2,10.8,23.3,20.2l0.2,0.2c4.6,5.4,16.9,19.6,25.3,56.6c1.1,4.7,2.9,10.5,5,17.3c1.7,5.5,3.7,11.6,5.5,18.2
			c0.4,1.6,0.1,3.3-0.9,4.6c-1,1.3-2.5,2.1-4.2,2.1L6.6,225C6.6,225,6.6,225,6.6,225z M63,116.9c-2.3,1.6-4.8,3.6-7.2,5.6
			c-3.8,3.3-7.3,6.7-10.3,10.3l-0.2,0.2c-4.1,4.8-15.2,17.6-23,52.1c-1.2,5.1-3.1,11.1-5.2,18.1c-1.1,3.5-2.3,7.3-3.5,11.2
			l199.6-0.1c-1.2-4-2.4-7.8-3.5-11.2c-2.2-7-4.1-13-5.3-18.1c-7.8-34.4-18.8-47.2-23-52.1l-0.2-0.2c-5.5-6.5-12.2-12.2-17.5-15.9
			c-8.5,7.4-25.8,19-50.4,19c0,0,0,0,0,0c-18.5,0-33-6.8-41.8-12.6C68.5,121.4,65.6,119.2,63,116.9z"/>
	</g>
	<g>
		<path class="st1" d="M113.4,118.9c-32.3,0-58.6-26.3-58.6-58.6c0-32.3,26.3-58.6,58.6-58.6c32.3,0,58.6,26.3,58.6,58.6
			C172,92.7,145.7,118.9,113.4,118.9z M113.4,12.3c-26.5,0-48,21.6-48,48s21.6,48,48,48s48-21.6,48-48S139.9,12.3,113.4,12.3z"/>
	</g>
</g>
</svg>
