<svg id="Capa_1" data-name="Capa 1" xmlns="http://www.w3.org/2000/svg" viewBox="0 0 500 500"><defs><style>.cls-1{fill:#572a86;}.cls-2{fill:#00a3e2;}</style></defs><title>Gráficas</title><path class="cls-1" d="M116.5,439.31a9.26,9.26,0,0,1-5.27-1.64A210,210,0,0,1,20,264.39c.09-115.67,94.23-209.72,209.89-209.72h.16A9.32,9.32,0,0,1,239.41,64l-.14,191.22,191.22.15a9.33,9.33,0,0,1,9.33,9.33,209.17,209.17,0,0,1-13.16,73.14,9.33,9.33,0,0,1-17.49-6.51A189.74,189.74,0,0,0,420.92,274l-191-.14a9.34,9.34,0,0,1-9.32-9.34l.14-191c-101.13,4.79-182,88.54-182,190.86a191.36,191.36,0,0,0,83.09,157.88,9.33,9.33,0,0,1-5.29,17Z"/><path class="cls-1" d="M470.63,234.31h0l-200.52-.15a9.34,9.34,0,0,1-9.32-9.34l.11-200.55a9.34,9.34,0,0,1,9.33-9.33h0A209.9,209.9,0,0,1,480,225,9.33,9.33,0,0,1,470.63,234.31ZM279.45,215.5l181.62.14A191.2,191.2,0,0,0,279.55,33.84Z"/><path class="cls-2" d="M242.55,485.06H198.46a9.33,9.33,0,0,1-9.33-9.33V302.21a9.33,9.33,0,0,1,9.33-9.33h44.09a9.33,9.33,0,0,1,9.33,9.33V475.73A9.33,9.33,0,0,1,242.55,485.06ZM207.8,466.4h25.42V311.54H207.8Z"/><path class="cls-2" d="M314.7,485.06H270.62a9.33,9.33,0,0,1-9.33-9.33V344.8a9.33,9.33,0,0,1,9.33-9.33H314.7A9.33,9.33,0,0,1,324,344.8V475.73A9.33,9.33,0,0,1,314.7,485.06ZM280,466.4h25.42V354.13H280Z"/><path class="cls-2" d="M387.11,485.06H343a9.33,9.33,0,0,1-9.33-9.33V381.07a9.33,9.33,0,0,1,9.33-9.33h44.08a9.32,9.32,0,0,1,9.33,9.33v94.66A9.33,9.33,0,0,1,387.11,485.06ZM352.36,466.4h25.42v-76H352.36Z"/><path class="cls-2" d="M423.29,485.06h-261a9.34,9.34,0,0,1-9.33-9.35l.33-200.36a9.33,9.33,0,0,1,9.33-9.32h0a9.33,9.33,0,0,1,9.32,9.35l-.31,191H423.29a9.33,9.33,0,0,1,0,18.66Z"/></svg>