<?xml version="1.0" encoding="utf-8"?>
<!-- Generator: Adobe Illustrator 24.0.2, SVG Export Plug-In . SVG Version: 6.00 Build 0)  -->
<svg version="1.1" id="Capa_1" xmlns="http://www.w3.org/2000/svg" xmlns:xlink="http://www.w3.org/1999/xlink" x="0px" y="0px"
	 viewBox="0 0 141.7 141.7" style="enable-background:new 0 0 141.7 141.7;" xml:space="preserve">
<style type="text/css">
	.st0{fill:#572A86;}
	.st1{fill:#00A3E2;}
</style>
<g>
	<g>
		<path class="st0" d="M-173.3,126.6h-44.2c-5.3,0-9.5-4.3-9.5-9.5V50.4c0-0.7,0.2-1.3,0.5-1.9l17.7-29.2c0.6-1.1,1.8-1.7,3.1-1.7
			h37.6c1.3,0,2.4,0.7,3.1,1.8l17.4,29.2c0.3,0.6,0.5,1.2,0.5,1.8v43.4c0,2-1.6,3.6-3.6,3.6s-3.6-1.6-3.6-3.6V51.4l-15.8-26.6h-33.6
			l-16.1,26.6V117c0,1.3,1.1,2.4,2.4,2.4h44.2c2,0,3.6,1.6,3.6,3.6C-169.8,125-171.4,126.6-173.3,126.6z"/>
	</g>
	<g>
		<g>
			<path class="st0" d="M-162.6,134.4c-3.6,0-7-1.4-9.6-4c-5.3-5.3-5.3-13.9,0-19.2l16.7-16.7c5.3-5.3,13.9-5.3,19.2,0
				c5.3,5.3,5.3,13.9,0,19.2l-16.7,16.7C-155.6,133-159,134.4-162.6,134.4z M-145.9,97.7c-1.6,0-3.3,0.6-4.5,1.9l-16.7,16.7
				c-2.5,2.5-2.5,6.6,0,9.1c1.2,1.2,2.8,1.9,4.5,1.9c1.7,0,3.3-0.7,4.5-1.9l16.7-16.7c2.5-2.5,2.5-6.6,0-9.1
				C-142.7,98.3-144.3,97.7-145.9,97.7z"/>
		</g>
		<g>
			<path class="st0" d="M-148.2,122.2c-0.9,0-1.8-0.4-2.5-1.1l-13.2-13.2c-1.4-1.4-1.4-3.7,0-5.1c1.4-1.4,3.7-1.4,5.1,0l13.2,13.2
				c1.4,1.4,1.4,3.7,0,5.1C-146.3,121.8-147.3,122.2-148.2,122.2z"/>
		</g>
	</g>
	<g>
		<path class="st0" d="M-150.8,97.6h-72.6c-2,0-3.6-1.6-3.6-3.6V50.3c0-2,1.6-3.6,3.6-3.6h72.6c2,0,3.6,1.6,3.6,3.6V94
			C-147.2,96-148.8,97.6-150.8,97.6z M-219.9,90.4h65.5V53.9h-65.5V90.4z"/>
	</g>
	<g>
		<g>
			<path class="st1" d="M-187.1,84.8c-2,0-3.6-1.6-3.6-3.6v-18c0-2,1.6-3.6,3.6-3.6s3.6,1.6,3.6,3.6v18
				C-183.5,83.2-185.1,84.8-187.1,84.8z"/>
		</g>
		<g>
			<path class="st1" d="M-196.3,75.8c-2,0-3.6-1.6-3.6-3.6c0-2,1.6-3.6,3.6-3.6l18.4,0c0,0,0,0,0,0c2,0,3.6,1.6,3.6,3.6
				c0,2-1.6,3.6-3.6,3.6L-196.3,75.8C-196.3,75.8-196.3,75.8-196.3,75.8z"/>
		</g>
	</g>
	<g>
		<path class="st1" d="M-164,24.8h-46.3c-3.2,0-5.8-2.6-5.8-5.8V1.9c0-3.2,2.6-5.8,5.8-5.8h46.3c3.2,0,5.8,2.6,5.8,5.8V19
			C-158.1,22.2-160.8,24.8-164,24.8z M-209,17.6h43.7V3.2H-209V17.6z"/>
	</g>
</g>
<g>
	<g>
		<path class="st0" d="M76.5,122.7c-6.4,0-14.7,0-15.3,0c-1.5,0-2.7-1.2-2.7-2.7c0-0.3-0.7-26.1-3.3-35.3c-1-3.5-1.7-8.1-2.5-12.5
			c-0.9-5.4-2.6-15.3-4.3-16.6c-0.1,0-0.1-0.1-0.1-0.1c-0.1,0-0.5,0.2-1.1,1c-1.4,1.9-2.3,5.1-2,7.1c0.2,1.2,1.6,11.8-7.5,16.6
			c-6.1,3.2-11,4.2-14.6,2.7c-0.8-0.3-1.5-0.8-2.1-1.3c-0.8,0.6-1.6,0.9-2.3,1c-1.8,0.3-3.8-0.3-5.2-1.8c-1.5-1.5-1.3-3.8-1-7.3
			c0.1-1.5,0.3-4.3,0.1-5.2c-0.3-0.3-1.1-1-1.8-1.5c-4.5-3.5-15-11.9-7.9-26.2c5.7-11.4,20.9-11.6,33.3-11.6c0.3,0,0.6,0,0.9,0
			c4.8,0,9.3,0,11.7-0.8C67.9,15.9,77.3,15.9,96,28.2c1.6,0.6,5.4,0.8,9.3,1.1c12.1,0.9,28.6,2.1,33.9,13c6,12.3-2.6,21.4-6.8,25.8
			c-0.6,0.7-1.4,1.5-1.6,1.8c-0.3,0.8-0.2,1.5,0,2.8c0.2,1.2,0.4,2.5,0.2,4.1c-0.5,3.6-2.4,4.7-3.5,5.1c-1.1,0.4-2.6,0.4-4.5-0.9
			c-1.8,1.7-4.9,2.9-11.3,2c-13-2-12.5-12.3-12.3-16.7c0-0.7,0.1-1.4,0-1.7c-0.4-4.1-2.8-7.6-4-8.4c-1.6,2.3-3.4,11.3-5.5,26.7
			l-0.2,1.4c-1.2,8.6-1.7,13-3.7,36.1c-0.1,1.4-1.3,2.5-2.7,2.5C82.7,122.7,79.9,122.7,76.5,122.7z M63.9,117.2c4.3,0,12.7,0,17,0
			c1.8-21.1,2.4-25.7,3.5-33.8l0.2-1.4c3-22.8,5.1-30.1,9.1-31.4c1.1-0.3,2.8-0.5,4.7,0.8c3.2,2.1,6,7.4,6.5,12.4
			c0.1,0.7,0,1.6,0,2.6c-0.3,5.6,0.1,9.9,7.6,11.1c5.6,0.9,6.6-0.4,7.2-1c2-2.5,4.1-1.8,5.5-0.8c0.1,0.1,0.2,0.2,0.3,0.2
			c0.1-0.7,0-1.4-0.2-2.3c-0.3-1.6-0.6-3.7,0.4-6c0.4-1,1.3-1.9,2.6-3.4c4.9-5.2,9.8-11.5,5.8-19.6c-3.9-8.1-19.2-9.2-29.4-9.9
			c-5-0.4-8.9-0.6-11.2-1.6c-0.2-0.1-0.3-0.1-0.5-0.2c-17.1-11.3-24.1-11.3-41.7,0.2c-0.2,0.1-0.3,0.2-0.5,0.3
			c-3.3,1.3-8.4,1.3-14.4,1.3c-10.9,0-24.6,0-28.8,8.5C3.1,52.7,8.3,58,14.2,62.6c1.7,1.4,2.9,2.3,3.4,3.5c0.9,2,0.6,4.9,0.4,8
			c-0.1,1-0.2,2.5-0.2,3.3c0.1-0.1,0.4-0.4,0.9-1.4c0.5-1,1.5-1.7,2.6-1.6c1.1,0.1,2.1,0.8,2.5,1.9c0.4,1.2,1,1.5,1.4,1.7
			c1.9,0.8,5.6-0.2,10-2.5c5.7-3,4.7-10.1,4.6-10.9c-0.7-4.2,1.4-10.9,5.3-13.4c2-1.3,4.4-1.4,6.4-0.1c3.6,2.3,4.9,9.2,6.8,20.3
			c0.7,4.3,1.5,8.7,2.4,11.9C62.8,91.3,63.7,110.2,63.9,117.2z M17.8,77.9L17.8,77.9L17.8,77.9z"/>
	</g>
	<g>
		<path class="st0" d="M27.8,61.2c-0.3,0-0.6,0-0.8,0c-0.8-0.1-1.8-0.1-2.8-0.2c-4.7-0.2-12.7-0.6-13.3-8.9
			c-0.4-5.2,1.8-11.7,14.5-12.8c2.6-0.2,11.5-0.6,15.6,3.1c1.3,1.2,2,2.8,2,4.5c0,4.4-4.2,8.5-5.5,9.7
			C34.4,59.6,30.9,61.2,27.8,61.2z M28.7,44.7c-0.9,0-1.9,0-2.8,0.1c-9.9,0.8-9.6,4.9-9.5,6.9c0.2,3,2.1,3.5,8.1,3.8
			c1,0,2.1,0.1,3.1,0.2c1.6,0.2,4.1-1,6.3-3.1c2.6-2.3,3.7-4.7,3.7-5.6c0-0.1,0-0.2-0.3-0.5C36.1,45.4,32.6,44.7,28.7,44.7z"/>
	</g>
	<g>
		<path class="st0" d="M115.6,61.1c-3,0-6.5-1.6-9.7-4.5c-1.3-1.2-5.5-5.3-5.5-9.7c0-1.7,0.7-3.3,2-4.5c4.1-3.8,13-3.3,15.6-3.1
			c12.7,1.1,14.9,7.5,14.5,12.8c-0.6,8.3-8.6,8.7-13.3,8.9c-1,0-1.9,0.1-2.8,0.2C116.1,61.1,115.8,61.1,115.6,61.1z M114.7,44.6
			c-3.9,0-7.4,0.7-8.6,1.8c-0.3,0.2-0.3,0.4-0.3,0.5c0,0.9,1.2,3.3,3.7,5.6c2.2,2,4.7,3.2,6.3,3.1c1-0.1,2-0.1,3.1-0.2
			c6-0.3,7.9-0.8,8.1-3.8c0.2-2,0.5-6-9.5-6.9C116.6,44.6,115.6,44.6,114.7,44.6z"/>
	</g>
</g>
</svg>
