<?xml version="1.0" encoding="utf-8"?>
<!-- Generator: Adobe Illustrator 24.0.2, SVG Export Plug-In . SVG Version: 6.00 Build 0)  -->
<svg version="1.1" id="Capa_1" xmlns="http://www.w3.org/2000/svg" xmlns:xlink="http://www.w3.org/1999/xlink" x="0px" y="0px"
	 viewBox="0 0 141.7 141.7" style="enable-background:new 0 0 141.7 141.7;" xml:space="preserve">
<style type="text/css">
	.st0{fill:#00A3E2;}
	.st1{fill:#572A86;}
</style>
<g>
	<g>
		<g>
			<path class="st0" d="M57.4,65.7c-0.6,0-1.2-0.2-1.7-0.7L40.2,48.3c-0.9-1-0.9-2.6,0-3.6c0.9-1,2.4-1,3.4,0l15.5,16.7
				c0.9,1,0.9,2.6,0,3.6C58.7,65.4,58,65.7,57.4,65.7z"/>
		</g>
		<g>
			<path class="st1" d="M16.4,105.8c-3.7,0-7.2-1.6-9.9-4.4c-2.6-2.9-4.1-6.7-4.1-10.7c0-4,1.5-7.8,4.1-10.7l49-53.1
				c1.1-1.2,2.8-1.2,3.9,0L75.2,44c0.5,0.6,0.8,1.3,0.8,2.1s-0.3,1.6-0.8,2.1l-49,53.1C23.6,104.2,20.1,105.8,16.4,105.8z
				 M57.4,33.2l-47,51c-3.3,3.6-3.3,9.4,0,12.9c3.3,3.6,8.6,3.6,11.9,0l47-51L57.4,33.2z"/>
		</g>
		<g>
			<path class="st1" d="M78.6,54.9c-0.7,0-1.4-0.3-2-0.9L50.1,25.3c-1.1-1.2-1.1-3.1,0-4.2l9.2-10c1.1-1.2,2.8-1.2,3.9,0l26.5,28.7
				c1.1,1.2,1.1,3.1,0,4.2l-9.2,10C80,54.6,79.3,54.9,78.6,54.9z M56,23.1l22.6,24.5l5.3-5.8L61.3,17.4L56,23.1z"/>
		</g>
	</g>
	<g>
		<g>
			<g>
				<path class="st0" d="M100.7,59.4c-0.6,0-1.2-0.3-1.7-0.8l-6.2-6.7c-0.9-1-0.9-2.6,0-3.6c0.9-1,2.4-1,3.4,0l6.2,6.7
					c0.9,1,0.9,2.6,0,3.6C101.9,59.2,101.3,59.4,100.7,59.4z"/>
			</g>
			<g>
				<path class="st0" d="M96.7,72.3c-0.6,0-1.2-0.3-1.7-0.8l-10.1-11c-0.9-1-0.9-2.6,0-3.6c0.9-1,2.4-1,3.4,0l10.1,11
					c0.9,1,0.9,2.6,0,3.6C97.9,72.1,97.3,72.3,96.7,72.3z"/>
			</g>
			<g>
				<path class="st0" d="M84.9,76.6c-0.6,0-1.2-0.3-1.7-0.8L77,69.1c-0.9-1-0.9-2.6,0-3.6c0.9-1,2.4-1,3.4,0l6.2,6.7
					c0.9,1,0.9,2.6,0,3.6C86.1,76.3,85.5,76.6,84.9,76.6z"/>
			</g>
			<g>
				<path class="st0" d="M69.9,92.9c-0.6,0-1.2-0.3-1.7-0.8L62,85.4c-0.9-1-0.9-2.6,0-3.6c0.9-1,2.4-1,3.4,0l6.2,6.7
					c0.9,1,0.9,2.6,0,3.6C71.1,92.6,70.5,92.9,69.9,92.9z"/>
			</g>
			<g>
				<path class="st0" d="M80.6,89.2c-0.6,0-1.2-0.2-1.7-0.7l-9.9-10.7c-0.9-1-0.9-2.6,0-3.6c0.9-1,2.4-1,3.4,0l9.9,10.7
					c0.9,1,0.9,2.6,0,3.6C81.8,88.9,81.2,89.2,80.6,89.2z"/>
			</g>
			<g>
				<path class="st1" d="M77.4,115.6c-0.7,0-1.4-0.3-2-0.9l-20.3-22c-1.1-1.2-1.1-3.1,0-4.2l44.7-48.4c1-1.1,2.9-1.1,3.9,0l20.3,22
					c1.1,1.2,1.1,3.1,0,4.2l-44.7,48.4C78.9,115.3,78.2,115.6,77.4,115.6z M61.1,90.6l16.4,17.8l40.8-44.2l-16.4-17.8L61.1,90.6z"/>
			</g>
		</g>
		<g>
			<path class="st1" d="M63.3,117.6c-0.7,0-1.4-0.3-2-0.9l-8-8.7c-1.1-1.2-1.1-3.1,0-4.2l8-8.7c1.1-1.2,2.8-1.2,3.9,0l8,8.7
				c1.1,1.2,1.1,3.1,0,4.2l-8,8.7C64.7,117.3,64,117.6,63.3,117.6z M59.2,106l4.1,4.4l4.1-4.4l-4.1-4.4L59.2,106z"/>
		</g>
		<g>
			<path class="st1" d="M42.4,131.6c-0.7,0-1.4-0.3-2-0.9c-1.1-1.2-1.1-3.1,0-4.2l16.8-18.2c1.1-1.2,2.8-1.2,3.9,0
				c1.1,1.2,1.1,3.1,0,4.2l-16.8,18.2C43.9,131.3,43.2,131.6,42.4,131.6z"/>
		</g>
		<g>
			<path class="st1" d="M117,61.4L117,61.4c-0.7,0-1.4-0.3-2-0.9l-9.8-10.7c-1.1-1.2-1.1-3.1,0-4.2L121,28.5c1-1.1,2.9-1.1,3.9,0
				l9.8,10.7c1.1,1.2,1.1,3.1,0,4.2L119,60.5C118.4,61.1,117.7,61.4,117,61.4z M111.1,47.7l5.9,6.4l11.8-12.8l-5.9-6.4L111.1,47.7z"
				/>
		</g>
		<g>
			<path class="st1" d="M127.8,73.3c-0.7,0-1.4-0.3-2-0.9L94.2,38.1c-1.1-1.2-1.1-3.1,0-4.2c1.1-1.2,2.8-1.2,3.9,0l31.7,34.3
				c1.1,1.2,1.1,3.1,0,4.2C129.3,73,128.5,73.3,127.8,73.3z"/>
		</g>
		<g>
			<path class="st1" d="M136.6,48.4c-0.7,0-1.4-0.3-2-0.9l-17.4-18.9c-1.1-1.2-1.1-3.1,0-4.2c1.1-1.2,2.8-1.2,3.9,0l17.4,18.9
				c1.1,1.2,1.1,3.1,0,4.2C138,48.1,137.3,48.4,136.6,48.4z"/>
		</g>
	</g>
</g>
</svg>
