<?xml version="1.0" encoding="utf-8"?>
<!-- Generator: Adobe Illustrator 24.0.2, SVG Export Plug-In . SVG Version: 6.00 Build 0)  -->
<svg version="1.1" id="Capa_1" xmlns="http://www.w3.org/2000/svg" xmlns:xlink="http://www.w3.org/1999/xlink" x="0px" y="0px"
	 viewBox="0 0 226.8 226.8" style="enable-background:new 0 0 226.8 226.8;" xml:space="preserve">
<style type="text/css">
	.st0{fill:#00A3E2;}
	.st1{fill:#572A86;}
</style>
<g>
	<g>
		<g>
			<path class="st0" d="M118,129.4c-0.8,0-1.6-0.3-2.1-0.9l-7.2-7.7c-1.1-1.2-1.1-3,0.1-4.2c1.2-1.1,3-1.1,4.2,0.1l7.2,7.7
				c1.1,1.2,1.1,3-0.1,4.2C119.4,129.2,118.7,129.4,118,129.4z"/>
		</g>
		<g>
			<path class="st0" d="M133.1,121.7c-0.8,0-1.5-0.3-2.1-0.9l-11.7-11.9c-1.1-1.2-1.1-3,0-4.2c1.2-1.1,3-1.1,4.2,0l11.7,11.9
				c1.1,1.2,1.1,3,0,4.2C134.5,121.5,133.8,121.7,133.1,121.7z"/>
		</g>
		<g>
			<path class="st0" d="M139.7,106.5c-0.8,0-1.6-0.3-2.1-0.9l-7.2-7.7c-1.1-1.2-1.1-3,0.1-4.2c1.2-1.1,3-1.1,4.2,0.1l7.2,7.7
				c1.1,1.2,1.1,3-0.1,4.2C141.1,106.2,140.4,106.5,139.7,106.5z"/>
		</g>
		<g>
			<path class="st0" d="M155.1,100.5c-0.8,0-1.5-0.3-2.1-0.9l-11.7-11.9c-1.1-1.2-1.1-3,0-4.2c1.2-1.1,3-1.1,4.2,0l11.7,11.9
				c1.1,1.2,1.1,3,0,4.2C156.6,100.2,155.8,100.5,155.1,100.5z"/>
		</g>
		<g>
			<path class="st0" d="M161.6,84.3c-0.8,0-1.6-0.3-2.1-0.9l-7.2-7.7c-1.1-1.2-1.1-3,0.1-4.2c1.2-1.1,3-1.1,4.2,0.1l7.2,7.7
				c1.1,1.2,1.1,3-0.1,4.2C163.1,84,162.4,84.3,161.6,84.3z"/>
		</g>
		<g>
			<path class="st1" d="M222.3,65.7c-0.8,0-1.5-0.3-2.1-0.9l-25.7-25.7c-1.2-1.1-1.2-3,0-4.2c1.1-1.1,3-1.1,4.2,0l25.7,25.7
				c1.2,1.1,1.2,3,0,4.2C223.8,65.4,223.1,65.7,222.3,65.7z"/>
		</g>
		<g>
			<path class="st1" d="M192.9,82c-0.8,0-1.5-0.3-2.1-0.9L178,68.3c-1.1-1.1-1.1-3,0-4.2l22.9-22.9c1.1-1.1,3.1-1.1,4.2,0l12.8,12.8
				c1.1,1.1,1.1,3,0,4.2L195,81.1C194.4,81.7,193.7,82,192.9,82z M184.2,66.2l8.7,8.7l18.7-18.7l-8.7-8.7L184.2,66.2z"/>
		</g>
		<g>
			<path class="st1" d="M207.7,96.8c-0.8,0-1.5-0.3-2.1-0.9l-43.1-43.2c-1.1-1.1-1.1-3,0-4.2c1.2-1.1,3-1.1,4.2,0l43.1,43.2
				c1.1,1.1,1.1,3,0,4.2C209.2,96.5,208.5,96.8,207.7,96.8z"/>
		</g>
		<g>
			<path class="st1" d="M128.5,162.9c-0.8,0-1.5-0.3-2.1-0.9l-30.1-30.1c-1.1-1.1-1.1-3,0-4.2L169,55.1c1.1-1.1,3-1.1,4.2,0
				l30.1,30.1c0.6,0.6,0.9,1.3,0.9,2.1c0,0.8-0.3,1.5-0.9,2.1l-72.7,72.7C130.1,162.6,129.3,162.9,128.5,162.9z M102.6,129.9l26,26
				l68.5-68.5l-26-26L102.6,129.9z"/>
		</g>
		<g>
			<path class="st1" d="M111.1,163.5c-0.8,0-1.5-0.3-2.1-0.9l-13.3-13.3c-1.1-1.1-1.1-3,0-4.2l6.3-6.3c1.1-1.1,3-1.1,4.2,0
				c1.1,1.1,1.1,3,0,4.2l-4.2,4.2l9.1,9.1l4.2-4.2c1.1-1.1,3-1.1,4.2,0c1.1,1.1,1.1,3,0,4.2l-6.3,6.3
				C112.7,163.1,111.9,163.5,111.1,163.5z"/>
		</g>
		<g>
			<path class="st1" d="M59.9,201.6c-0.8,0-1.5-0.3-2.1-0.9c-1.1-1.2-1.1-3,0-4.2l43.5-43c1.2-1.1,3-1.1,4.2,0c1.1,1.2,1.1,3,0,4.2
				l-43.5,43C61.4,201.3,60.6,201.6,59.9,201.6z"/>
		</g>
	</g>
	<g>
		<g>
			<path class="st0" d="M92.8,100c-0.8,0-1.5-0.3-2.1-0.9l-22-22.2c-1.1-1.2-1.1-3,0-4.2c1.2-1.1,3-1.1,4.2,0l22,22.2
				c1.1,1.2,1.1,3,0,4.2C94.3,99.7,93.6,100,92.8,100z"/>
		</g>
		<g>
			<path class="st1" d="M19,166.6c-5.1,0-9.5-2.2-12.6-5.5c-6.5-6.8-7.5-19,3-29.1l86.9-86.9c1.1-1.1,3.1-1.1,4.2,0l22.1,22.1
				c0.6,0.6,0.9,1.3,0.9,2.1c0,0.8-0.3,1.5-0.9,2.1c0,0-78.8,78.6-88.5,88.5c0,0-0.1,0.1-0.1,0.1C29,164.7,23.8,166.6,19,166.6z
				 M98.4,51.4l-84.9,84.9c-8.2,7.8-7.2,16.3-2.8,20.9c4.2,4.4,11.7,5.7,19.3-1.4c9-9.1,73.9-73.9,86.4-86.4L98.4,51.4z M32,157.9
				L32,157.9L32,157.9z"/>
		</g>
		<g>
			<path class="st1" d="M127.2,79c-0.8,0-1.5-0.3-2.1-0.9L90,43.1c-1.1-1.1-1.1-3,0-4.2L102.9,26c1.1-1.1,3.1-1.1,4.2,0l35.1,35.1
				c1.1,1.1,1.1,3,0,4.2l-12.9,12.9C128.7,78.7,127.9,79,127.2,79z M96.2,41l30.9,30.9l8.7-8.7l-30.9-30.9L96.2,41z"/>
		</g>
	</g>
</g>
</svg>
