<?xml version="1.0" encoding="utf-8"?>
<!-- Generator: Adobe Illustrator 24.0.2, SVG Export Plug-In . SVG Version: 6.00 Build 0)  -->
<svg version="1.1" id="Capa_1" xmlns="http://www.w3.org/2000/svg" xmlns:xlink="http://www.w3.org/1999/xlink" x="0px" y="0px"
	 viewBox="0 0 800 800" style="enable-background:new 0 0 800 800;" xml:space="preserve">
<style type="text/css">
	.st0{fill:#00A3E2;}
	.st1{fill:#572A86;}
</style>
<g>
	<g>
		<path class="st0" d="M454.4,209.6h-90c-5,0-9.8-2-13.4-5.5c-3.5-3.5-5.5-8.4-5.5-13.4l0-133.5c0-31.5,28.7-57.2,63.9-57.2
			s63.9,25.7,63.9,57.2l0,133.5C473.3,201.2,464.8,209.6,454.4,209.6z M383.3,171.8h52.2l0-114.6c0-10.5-11.9-19.4-26.1-19.4
			c-14.1,0-26.1,8.9-26.1,19.4L383.3,171.8z"/>
	</g>
	<g>
		<path class="st1" d="M562.9,623.6c-10.4,0-18.9-8.5-18.9-18.9V387.5c0-0.7-0.2-1.4-0.7-1.9l-56.9-68.7c-2.8-3.4-4.4-7.7-4.3-12.1
			l0.1-18H317.7c-10.4,0-18.9-8.5-18.9-18.9c0-10.4,8.5-18.9,18.9-18.9h183.4c5,0,9.9,2,13.4,5.6c3.5,3.6,5.5,8.4,5.5,13.4
			l-0.1,30.1l52.5,63.5c6,7.3,9.4,16.6,9.4,26v217.1C581.8,615.1,573.3,623.6,562.9,623.6z"/>
	</g>
	<g>
		<path class="st1" d="M409.7,781.4H282c-11.9,0-23-4.6-31.4-13c-8.4-8.4-13-19.5-13-31.4l0.3-221.8c0-10.4,8.5-18.9,18.9-18.9
			c0,0,0,0,0,0c10.4,0,18.9,8.5,18.9,18.9L275.5,737c0,2.3,1.2,3.9,1.9,4.6c0.7,0.7,2.3,1.9,4.6,1.9h127.7
			c10.4,0,18.9,8.5,18.9,18.9S420.2,781.4,409.7,781.4z"/>
	</g>
	<g>
		<path class="st0" d="M501.1,286.8H317.7c-10.4,0-18.9-8.5-18.9-18.9V190c0-10.4,8.5-18.9,18.9-18.9h183.4
			c10.4,0,18.9,8.5,18.9,18.9v77.8C520,278.3,511.5,286.8,501.1,286.8z M336.6,248.9h145.6v-40H336.6V248.9z"/>
	</g>
	<g>
		<path class="st1" d="M562.9,440.3C562.8,440.3,562.8,440.3,562.9,440.3L364,439.4c-10.4,0-18.9-8.6-18.8-19
			c0-10.4,8.5-18.8,18.9-18.8c0,0,0.1,0,0.1,0l198.8,0.9c10.4,0,18.9,8.6,18.8,19C581.7,431.9,573.3,440.3,562.9,440.3z"/>
	</g>
	<g>
		<path class="st1" d="M258,633.3c-10.4,0-18.9-8.5-18.9-18.9c0-10.4,8.4-18.9,18.9-18.9l288.7-0.3c0,0,0,0,0,0
			c10.4,0,18.9,8.5,18.9,18.9c0,10.4-8.4,18.9-18.9,18.9L258,633.3C258,633.3,258,633.3,258,633.3z"/>
	</g>
	<g>
		<g>
			<path class="st1" d="M519.6,800c-18.1,0-36.3-6.9-50.1-20.7c-27.6-27.6-27.6-72.6,0-100.2l86.6-86.6c27.6-27.6,72.6-27.6,100.2,0
				c27.6,27.6,27.6,72.6,0,100.2l-86.6,86.6C555.9,793.1,537.7,800,519.6,800z M606.2,609.6c-8.5,0-16.9,3.2-23.4,9.7l-86.6,86.6
				c-12.9,12.9-12.9,33.8,0,46.7c12.9,12.9,33.8,12.9,46.7,0l86.6-86.6c12.9-12.9,12.9-33.8,0-46.7
				C623.1,612.8,614.6,609.6,606.2,609.6z"/>
		</g>
		<g>
			<path class="st1" d="M594.6,736.5c-4.8,0-9.7-1.8-13.4-5.5l-68.4-68.4c-7.4-7.4-7.4-19.4,0-26.7c7.4-7.4,19.4-7.4,26.7,0
				l68.4,68.4c7.4,7.4,7.4,19.4,0,26.7C604.3,734.7,599.4,736.5,594.6,736.5z"/>
		</g>
	</g>
	<g>
		<g>
			<path class="st0" d="M256.6,445.9c-10.4,0-18.9-8.5-18.9-18.9v-95.1c0-10.4,8.5-18.9,18.9-18.9c10.4,0,18.9,8.5,18.9,18.9V427
				C275.5,437.5,267,445.9,256.6,445.9z"/>
		</g>
		<g>
			<path class="st0" d="M207.7,398.6c-10.4,0-18.9-8.4-18.9-18.9c0-10.4,8.4-18.9,18.9-19l96.9-0.2c0,0,0,0,0,0
				c10.4,0,18.9,8.4,18.9,18.9c0,10.4-8.4,18.9-18.9,19L207.7,398.6C207.7,398.6,207.7,398.6,207.7,398.6z"/>
		</g>
	</g>
	<g>
		<path class="st1" d="M256.6,513.6c-73.8,0-133.8-60-133.8-133.8c0-73.8,60-133.8,133.8-133.8c73.8,0,133.8,60,133.8,133.8
			C390.3,453.6,330.3,513.6,256.6,513.6z M256.6,283.8c-52.9,0-96,43-96,96c0,52.9,43,96,96,96s96-43,96-96
			C352.5,326.9,309.5,283.8,256.6,283.8z"/>
	</g>
</g>
</svg>
