<?xml version="1.0" encoding="utf-8"?>
<!-- Generator: Adobe Illustrator 24.0.2, SVG Export Plug-In . SVG Version: 6.00 Build 0)  -->
<svg version="1.1" id="Capa_1" xmlns="http://www.w3.org/2000/svg" xmlns:xlink="http://www.w3.org/1999/xlink" x="0px" y="0px"
	 viewBox="0 0 500 500" style="enable-background:new 0 0 500 500;" xml:space="preserve">
<style type="text/css">
	.st0{fill:#00A3E2;}
	.st1{fill:#572A86;}
</style>
<g>
	<g>
		<path class="st0" d="M168.7,118.1h-49.4c-2.8,0-5.4-1.1-7.3-3c-1.9-1.9-3-4.6-3-7.3l0-73.4c0-17.3,15.8-31.4,35.1-31.4
			s35.1,14.1,35.1,31.4l0,73.4C179,113.5,174.4,118.1,168.7,118.1z M129.6,97.3h28.7l0-63c0-5.8-6.6-10.6-14.3-10.6
			c-7.8,0-14.3,4.9-14.3,10.6L129.6,97.3z"/>
	</g>
	<g>
		<path class="st1" d="M184,432.2h-110c-6.5,0-12.6-2.5-17.2-7.1c-4.6-4.6-7.1-10.7-7.1-17.2l0.3-191.1c0-5.5,1.9-10.9,5.3-15.2
			L83,166.7l0.2-16.7c0.1-5.7,4.7-10.3,10.4-10.3h100.7c2.8,0,5.4,1.1,7.4,3.1s3,4.6,3,7.4l-0.1,16.6l18.9,23.2
			c3.6,4.5,2.9,11-1.5,14.6c-4.5,3.6-11,2.9-14.6-1.5L186.2,177c-1.5-1.9-2.3-4.2-2.3-6.6l0-9.9h-80l-0.1,10c0,2.3-0.8,4.6-2.3,6.4
			l-30,37.7c-0.5,0.6-0.8,1.4-0.8,2.2l-0.3,191.1c0,1.3,0.7,2.1,1,2.5c0.4,0.4,1.2,1,2.5,1h110c5.7,0,10.4,4.7,10.4,10.4
			S189.7,432.2,184,432.2z"/>
	</g>
	<g>
		<path class="st0" d="M194.3,160.5H93.6c-5.7,0-10.4-4.7-10.4-10.4v-42.8c0-5.7,4.7-10.4,10.4-10.4h100.7c5.7,0,10.4,4.7,10.4,10.4
			v42.8C204.7,155.8,200,160.5,194.3,160.5z M104,139.7h80v-22h-80V139.7z"/>
	</g>
	<g>
		<path class="st1" d="M190.4,244.7C190.4,244.7,190.3,244.7,190.4,244.7l-124.8-0.4c-5.7,0-10.4-4.7-10.4-10.4
			c0-5.7,4.7-10.4,10.4-10.4c0,0,0,0,0,0l124.8,0.4c5.7,0,10.4,4.7,10.4,10.4C200.7,240.1,196.1,244.7,190.4,244.7z"/>
	</g>
	<g>
		<path class="st1" d="M60.8,350.9c-5.7,0-10.4-4.6-10.4-10.4c0-5.7,4.6-10.4,10.4-10.4l116.9-0.1c0,0,0,0,0,0
			c5.7,0,10.4,4.6,10.4,10.4c0,5.7-4.6,10.4-10.4,10.4L60.8,350.9C60.8,350.9,60.8,350.9,60.8,350.9z"/>
	</g>
	<g>
		<g>
			<path class="st1" d="M331.7,474.5H203.8c-15.2,0-27.6-12.4-27.6-27.6V253.8c0-1.9,0.5-3.8,1.5-5.4l51.1-84.5c1.9-3.1,5.3-5,8.9-5
				h109c3.7,0,7.1,1.9,8.9,5.1l50.3,84.5c1,1.6,1.5,3.4,1.5,5.3v125.8c0,5.7-4.7,10.4-10.4,10.4s-10.4-4.7-10.4-10.4V256.6
				l-45.8-76.9h-97.2l-46.6,77v190.2c0,3.8,3.1,6.8,6.8,6.8h127.9c5.7,0,10.4,4.7,10.4,10.4S337.5,474.5,331.7,474.5z"/>
		</g>
		<g>
			<g>
				<path class="st1" d="M362.8,497.1c-10.1,0-20.2-3.8-27.8-11.5c-15.3-15.3-15.3-40.3,0-55.7l48.3-48.3
					c15.3-15.3,40.3-15.3,55.7,0c15.3,15.3,15.3,40.3,0,55.7c0,0,0,0,0,0l-48.3,48.3C383,493.2,372.9,497.1,362.8,497.1z
					 M411.1,390.9c-4.8,0-9.5,1.8-13.1,5.4l-48.3,48.3c-7.2,7.2-7.2,19,0,26.3c7.2,7.2,19,7.2,26.3,0l48.3-48.3h0
					c7.2-7.2,7.2-19,0-26.3C420.6,392.7,415.8,390.9,411.1,390.9z M431.6,429.9L431.6,429.9L431.6,429.9z"/>
			</g>
			<g>
				<path class="st1" d="M404.6,461.6c-2.7,0-5.3-1-7.3-3l-38.2-38.2c-4.1-4.1-4.1-10.6,0-14.7c4.1-4.1,10.6-4.1,14.7,0l38.2,38.2
					c4.1,4.1,4.1,10.6,0,14.7C410,460.6,407.3,461.6,404.6,461.6z"/>
			</g>
		</g>
		<g>
			<path class="st1" d="M396.9,390.6H186.6c-5.7,0-10.4-4.7-10.4-10.4V253.7c0-5.7,4.7-10.4,10.4-10.4h210.4
				c5.7,0,10.4,4.7,10.4,10.4v126.5C407.3,385.9,402.7,390.6,396.9,390.6z M197,369.8h189.6V264.1H197V369.8z"/>
		</g>
		<g>
			<g>
				<path class="st0" d="M292,353.4c-5.7,0-10.4-4.7-10.4-10.4v-52.3c0-5.7,4.7-10.4,10.4-10.4s10.4,4.7,10.4,10.4v52.3
					C302.4,348.8,297.8,353.4,292,353.4z"/>
			</g>
			<g>
				<path class="st0" d="M265.2,327.4c-5.7,0-10.4-4.6-10.4-10.4c0-5.7,4.6-10.4,10.4-10.4l53.2-0.1c0,0,0,0,0,0
					c5.7,0,10.4,4.6,10.4,10.4c0,5.7-4.6,10.4-10.4,10.4L265.2,327.4C265.2,327.4,265.2,327.4,265.2,327.4z"/>
			</g>
		</g>
		<g>
			<path class="st0" d="M358.9,179.7H224.6c-9.3,0-16.9-7.6-16.9-16.9v-49.5c0-9.3,7.6-16.9,16.9-16.9h134.2
				c9.3,0,16.9,7.6,16.9,16.9v49.5C375.8,172.1,368.2,179.7,358.9,179.7z M228.5,158.9H355v-41.7H228.5V158.9z"/>
		</g>
	</g>
</g>
</svg>
