<?xml version="1.0" encoding="utf-8"?>
<!-- Generator: Adobe Illustrator 24.0.2, SVG Export Plug-In . SVG Version: 6.00 Build 0)  -->
<svg version="1.1" id="Capa_1" xmlns="http://www.w3.org/2000/svg" xmlns:xlink="http://www.w3.org/1999/xlink" x="0px" y="0px"
	 viewBox="0 0 141.7 141.7" style="enable-background:new 0 0 141.7 141.7;" xml:space="preserve">
<style type="text/css">
	.st0{fill:#572A86;}
	.st1{fill:#00A3E2;}
</style>
<g>
	<g>
		<path class="st0" d="M27.3,130.8c-1,0-1.9-0.5-2.5-1.2c-0.6-0.8-0.8-1.8-0.5-2.7c1-3.4,2-6.7,2.9-9.5c1.1-3.5,2.1-6.5,2.6-9
			C34.2,89,40.6,81.5,43,78.7l0.1-0.1c1.8-2.1,3.8-4.1,6-6c2.2-1.9,4.4-3.5,6.2-4.6c1.2-0.7,2.8-0.5,3.8,0.4
			c1.5,1.5,3.3,2.9,5.2,4.1c3.9,2.6,10.4,5.6,18.6,5.6c0,0,0,0,0,0c12.9,0,21.5-7.5,23.8-9.8c1-1,2.6-1.2,3.8-0.4
			c3,1.8,8,5.7,12.2,10.6l0.1,0.1c2.4,2.8,8.8,10.3,13.2,29.7c0.6,2.4,1.5,5.5,2.6,9c0.9,2.8,1.9,6.1,2.9,9.5
			c0.3,0.9,0.1,1.9-0.5,2.7c-0.6,0.8-1.5,1.2-2.5,1.2L27.3,130.8C27.3,130.8,27.3,130.8,27.3,130.8z M56.7,74.6
			c-1.1,0.8-2.3,1.7-3.5,2.8c-2,1.7-3.8,3.5-5.3,5.3l-0.1,0.1c-2.1,2.5-7.8,9.1-11.9,27c-0.6,2.7-1.6,5.8-2.7,9.5
			c-0.5,1.7-1.1,3.5-1.7,5.4l103,0c-0.6-1.9-1.1-3.7-1.7-5.4c-1.1-3.6-2.1-6.8-2.7-9.5c-4.1-17.9-9.8-24.5-11.9-27l-0.1-0.1
			c-2.8-3.3-6.1-6.2-8.8-8.1c-4.5,3.9-13.5,9.8-26.3,9.8c0,0,0,0,0,0c-9.8,0-17.3-3.6-22-6.6C59.5,76.8,58,75.7,56.7,74.6z"/>
	</g>
	<g>
		<path class="st0" d="M83,75.6c-17,0-30.9-13.9-30.9-30.9c0-17,13.9-30.9,30.9-30.9c17,0,30.9,13.9,30.9,30.9
			C113.9,61.7,100,75.6,83,75.6z M83,20c-13.6,0-24.7,11.1-24.7,24.7c0,13.6,11.1,24.7,24.7,24.7c13.6,0,24.7-11.1,24.7-24.7
			C107.6,31.1,96.6,20,83,20z"/>
	</g>
	<g>
		<path class="st1" d="M40.6,17.2C40.6,17.2,40.6,17.2,40.6,17.2l-12.4,0c-1.7,0-3.1-1.4-3.1-3.1c0-1.7,1.4-3.1,3.1-3.1c0,0,0,0,0,0
			l12.4,0c1.7,0,3.1,1.4,3.1,3.1C43.7,15.8,42.3,17.2,40.6,17.2z"/>
	</g>
	<g>
		<path class="st1" d="M40.5,29.8C40.5,29.8,40.5,29.8,40.5,29.8l-12.4,0c-1.7,0-3.1-1.4-3.1-3.1c0-1.7,1.4-3.1,3.1-3.1c0,0,0,0,0,0
			l12.4,0c1.7,0,3.1,1.4,3.1,3.1C43.6,28.4,42.3,29.8,40.5,29.8z"/>
	</g>
	<g>
		<path class="st1" d="M40.8,42.3C40.8,42.3,40.8,42.3,40.8,42.3l-37.7,0c-1.7,0-3.1-1.4-3.1-3.1c0-1.7,1.4-3.1,3.1-3.1c0,0,0,0,0,0
			l37.7,0c1.7,0,3.1,1.4,3.1,3.1C43.9,40.9,42.5,42.3,40.8,42.3z"/>
	</g>
	<g>
		<path class="st1" d="M29.3,55C29.3,55,29.3,55,29.3,55L3.1,55c-1.7,0-3.1-1.4-3.1-3.1c0-1.7,1.4-3.1,3.1-3.1c0,0,0,0,0,0l26.1,0
			c1.7,0,3.1,1.4,3.1,3.1C32.4,53.6,31,55,29.3,55z"/>
	</g>
	<g>
		<path class="st1" d="M15.7,29.8H3.1c-1.7,0-3.1-1.4-3.1-3.1V14.1C0,12.4,1.4,11,3.1,11h12.6c1.7,0,3.1,1.4,3.1,3.1v12.6
			C18.8,28.4,17.4,29.8,15.7,29.8z M6.2,23.6h6.4v-6.4H6.2V23.6z"/>
	</g>
</g>
</svg>
