<?xml version="1.0" encoding="utf-8"?>
<!-- Generator: Adobe Illustrator 24.0.2, SVG Export Plug-In . SVG Version: 6.00 Build 0)  -->
<svg version="1.1" id="Capa_1" xmlns="http://www.w3.org/2000/svg" xmlns:xlink="http://www.w3.org/1999/xlink" x="0px" y="0px"
	 viewBox="0 0 141.7 141.7" style="enable-background:new 0 0 141.7 141.7;" xml:space="preserve">
<style type="text/css">
	.st0{fill:#572A86;}
	.st1{fill:#00A3E2;}
</style>
<g>
	<g>
		<path class="st0" d="M86.9,19.8H54.3c-1.9,0-3.5-1.6-3.5-3.5s1.6-3.5,3.5-3.5h32.6c1.9,0,3.5,1.6,3.5,3.5S88.9,19.8,86.9,19.8z"/>
	</g>
	<g>
		<path class="st0" d="M124,142.8H17.8c-6.6,0-11.9-5.3-11.9-11.9V24.7c0-6.6,5.3-11.9,11.9-11.9h18.7c1.9,0,3.5,1.6,3.5,3.5
			s-1.6,3.5-3.5,3.5H17.8c-2.7,0-4.9,2.2-4.9,4.9v106.2c0,2.7,2.2,4.9,4.9,4.9H124c2.7,0,4.9-2.2,4.9-4.9V24.7
			c0-2.7-2.2-4.9-4.9-4.9h-18.5c-1.9,0-3.5-1.6-3.5-3.5s1.6-3.5,3.5-3.5H124c6.6,0,11.9,5.3,11.9,11.9v106.2
			C135.9,137.5,130.5,142.8,124,142.8z"/>
	</g>
	<g>
		<path class="st0" d="M87.5,19.7H53.9c-1.9,0-3.5-1.6-3.5-3.5s1.6-3.5,3.5-3.5h33.6c1.9,0,3.5,1.6,3.5,3.5S89.4,19.7,87.5,19.7z"/>
	</g>
	<g>
		<path class="st1" d="M44.8,33c-6.2,0-11.2-5-11.2-11.2V10.1c0-6.2,5-11.2,11.2-11.2S56,4,56,10.1v11.7C56,28,51,33,44.8,33z
			 M44.8,5.9c-2.3,0-4.2,1.9-4.2,4.2v11.7c0,2.3,1.9,4.2,4.2,4.2s4.2-1.9,4.2-4.2V10.1C49,7.8,47.1,5.9,44.8,5.9z"/>
	</g>
	<g>
		<path class="st1" d="M95.6,33.1c-6.2,0-11.2-5-11.2-11.2V10.2C84.4,4,89.4-1,95.6-1s11.2,5,11.2,11.2v11.7
			C106.8,28.1,101.8,33.1,95.6,33.1z M95.6,6c-2.3,0-4.2,1.9-4.2,4.2v11.7c0,2.3,1.9,4.2,4.2,4.2s4.2-1.9,4.2-4.2V10.2
			C99.8,7.9,97.9,6,95.6,6z"/>
	</g>
	<g>
		<path class="st1" d="M87.4,128.5l-23.2,0V86l-10.2,0V64.8l33.3,0V128.5z M71.2,121.5l9.2,0V71.8l-19.3,0v7.2l10.2,0V121.5z"/>
	</g>
	<g>
		<path class="st0" d="M9.4,57.6c-1.9,0-3.5-1.6-3.5-3.5s1.6-3.5,3.5-3.5l123,0h0c1.9,0,3.5,1.6,3.5,3.5s-1.6,3.5-3.5,3.5L9.4,57.6
			C9.4,57.6,9.4,57.6,9.4,57.6z"/>
	</g>
</g>
</svg>
