<?xml version="1.0" encoding="utf-8"?>
<!-- Generator: Adobe Illustrator 24.0.2, SVG Export Plug-In . SVG Version: 6.00 Build 0)  -->
<svg version="1.1" id="Capa_1" xmlns="http://www.w3.org/2000/svg" xmlns:xlink="http://www.w3.org/1999/xlink" x="0px" y="0px"
	 viewBox="0 0 500 500" style="enable-background:new 0 0 500 500;" xml:space="preserve">
<style type="text/css">
	.st0{fill:#572A86;}
	.st1{fill:#00A3E2;}
</style>
<g>
	<path class="st0" d="M457.6,470H308.5c-3,0-5.9-1.2-8.1-3.3c-2.1-2.1-3.3-5.1-3.3-8.1l0.5-167.9l-96.9,0.4l-0.5,167.5
		c0,6.3-5.1,11.4-11.4,11.4H41.1c-6.3,0-11.4-5.1-11.4-11.4V258.8c0-6.3,5.1-11.4,11.4-11.4s11.4,5.1,11.4,11.4v188.4h124.9
		l0.5-167.5c0-6.3,5.1-11.3,11.3-11.4l119.7-0.5c3,0,6,1.2,8.1,3.3c2.1,2.1,3.4,5.1,3.3,8.1l-0.5,168h126.3V220.9
		c0-6.3,5.1-11.4,11.4-11.4s11.4,5.1,11.4,11.4v237.7C469,464.9,463.9,470,457.6,470z"/>
</g>
<g>
	<path class="st1" d="M189.9,232.3c-39.1,0-70.8-31.8-70.8-70.8c0-6.3,5.1-11.4,11.4-11.4c6.3,0,11.4,5.1,11.4,11.4
		c0,26.5,21.5,48,48,48s48-21.5,48-48c0-6.3,5.1-11.4,11.4-11.4s11.4,5.1,11.4,11.4C260.7,200.6,229,232.3,189.9,232.3z"/>
</g>
<g>
	<path class="st1" d="M308.9,232.3c-39.1,0-70.8-31.8-70.8-70.8c0-6.3,5.1-11.4,11.4-11.4s11.4,5.1,11.4,11.4c0,26.5,21.5,48,48,48
		c26.5,0,48-21.5,48-48c0-6.3,5.1-11.4,11.4-11.4s11.4,5.1,11.4,11.4C379.7,200.6,348,232.3,308.9,232.3z"/>
</g>
<g>
	<path class="st1" d="M428.3,232.3c-39.1,0-70.8-31.8-70.8-70.8c0-6.3,5.1-11.4,11.4-11.4c6.3,0,11.4,5.1,11.4,11.4
		c0,26.5,21.5,48,48,48c25.6,0,46.6-20.2,48-45.4L419.8,52.8H76.3L22.6,164c1.3,25.3,22.3,45.6,48,45.6c26.5,0,48-21.5,48-48
		c0-6.3,5.1-11.4,11.4-11.4s11.4,5.1,11.4,11.4c0,39.1-31.8,70.8-70.8,70.8s-70.8-31.8-70.8-70.8c0-1.7,0.4-3.4,1.1-5l58-120.1
		c1.9-3.9,5.9-6.4,10.3-6.4h357.6c4.3,0,8.2,2.4,10.2,6.2l60.9,120.1c0.8,1.6,1.2,3.4,1.2,5.2C499.1,200.6,467.3,232.3,428.3,232.3z
		"/>
</g>
</svg>
