<?xml version="1.0" encoding="utf-8"?>
<!-- Generator: Adobe Illustrator 24.0.2, SVG Export Plug-In . SVG Version: 6.00 Build 0)  -->
<svg version="1.1" id="Capa_1" xmlns="http://www.w3.org/2000/svg" xmlns:xlink="http://www.w3.org/1999/xlink" x="0px" y="0px"
	 viewBox="0 0 141.7 141.7" style="enable-background:new 0 0 141.7 141.7;" xml:space="preserve">
<style type="text/css">
	.st0{fill:#572A86;}
	.st1{fill:#00A3E2;}
</style>
<g>
	<g>
		<path class="st0" d="M48.2,87.8c-14.1,0-25.6-11.5-25.6-25.6c0-14.1,11.5-25.6,25.6-25.6c14.1,0,25.6,11.5,25.6,25.6
			C73.7,76.3,62.3,87.8,48.2,87.8z M48.2,42.5c-10.9,0-19.7,8.8-19.7,19.7s8.8,19.7,19.7,19.7c10.9,0,19.7-8.8,19.7-19.7
			S59.1,42.5,48.2,42.5z"/>
	</g>
	<g>
		<path class="st0" d="M2.9,135.2c-0.9,0-1.8-0.4-2.3-1.2c-0.6-0.7-0.7-1.7-0.5-2.6c0.8-2.8,1.6-5.4,2.3-7.8
			c0.9-2.8,1.7-5.3,2.1-7.3c0.4-1.6,1.9-2.6,3.5-2.2c1.6,0.4,2.6,1.9,2.2,3.5C9.8,120,9,122.6,8,125.5c-0.4,1.2-0.8,2.5-1.2,3.9
			l82.7,0c-0.4-1.4-0.8-2.7-1.2-3.9c-0.9-3-1.7-5.5-2.2-7.7C82.8,103.4,78.2,98,76.5,96l-0.1-0.1c-2.2-2.5-4.7-4.8-6.8-6.3
			c-3.8,3.2-11.1,7.9-21.4,7.9c0,0,0,0,0,0c-10.2,0-17.6-4.7-21.4-7.9C26.3,90,25.7,90.5,25,91c-1.2,1-3.1,0.8-4.1-0.4
			c-1-1.2-0.8-3.1,0.4-4.1c1.5-1.2,3-2.3,4.3-3.1c1.1-0.7,2.6-0.5,3.6,0.4c1.9,1.8,8.7,7.8,19.1,7.8c0,0,0,0,0,0
			c10.3,0,17.2-6,19.1-7.8c1-0.9,2.4-1.1,3.6-0.4c2.5,1.5,6.6,4.7,10,8.7l0.1,0.1c2,2.3,7.3,8.4,10.9,24.3c0.4,2,1.2,4.4,2.1,7.2
			c0.7,2.3,1.6,4.9,2.3,7.8c0.2,0.9,0.1,1.8-0.5,2.6c-0.6,0.7-1.4,1.2-2.3,1.2L2.9,135.2C2.9,135.2,2.9,135.2,2.9,135.2z"/>
	</g>
	<g>
		<path class="st0" d="M93.5,57.6c-14.1,0-25.6-11.5-25.6-25.6C67.9,18,79.4,6.5,93.5,6.5S119,18,119,32.1
			C119,46.1,107.5,57.6,93.5,57.6z M93.5,12.4c-10.9,0-19.7,8.8-19.7,19.7s8.8,19.7,19.7,19.7s19.7-8.8,19.7-19.7
			S104.3,12.4,93.5,12.4z"/>
	</g>
	<g>
		<path class="st0" d="M99.8,104.9c-2,0-3.7,0-5.2,0c-1.6,0-2.9-1.3-2.9-2.9c0-1.6,1.3-2.9,2.9-2.9c0,0,0,0,0,0c9.2,0,31.3,0,40.3,0
			c-0.4-1.4-0.8-2.7-1.2-3.9c-0.9-3-1.7-5.5-2.2-7.7c-3.3-14.4-7.9-19.8-9.6-21.8l-0.1-0.1c-2.2-2.5-4.7-4.8-6.8-6.3
			c-3.8,3.2-11.1,7.9-21.4,7.9c0,0,0,0,0,0c-3.6,0-7.1-0.6-10.6-1.8c-0.4,4.1-1.5,10.2-5.2,15.5c-0.9,1.3-2.7,1.7-4.1,0.8
			c-1.3-0.9-1.7-2.7-0.8-4.1c4.8-7,4.3-16.3,4.2-16.3c-0.1-1,0.4-2,1.3-2.6c0.9-0.6,2-0.7,2.9-0.2c3.9,1.9,7.9,2.9,12.1,2.9
			c0,0,0,0,0,0c10.3,0,17.2-6,19.1-7.8c1-0.9,2.4-1.1,3.6-0.4c2.5,1.5,6.6,4.7,10,8.7l0.1,0.1c2,2.3,7.3,8.4,10.9,24.3
			c0.4,2,1.2,4.4,2.1,7.2c0.7,2.3,1.6,4.9,2.3,7.8c0.2,0.9,0.1,1.8-0.5,2.6s-1.4,1.2-2.3,1.2C138.5,104.9,113.7,104.9,99.8,104.9z"
			/>
	</g>
	<g>
		<path class="st1" d="M15.1,117.2c-1.6,0-2.9-1.3-2.9-2.9V94.5c0-1.6,1.3-2.9,2.9-2.9s2.9,1.3,2.9,2.9v19.8
			C18,115.9,16.7,117.2,15.1,117.2z"/>
	</g>
	<g>
		<path class="st1" d="M25,107.3H5.1c-1.6,0-2.9-1.3-2.9-2.9s1.3-2.9,2.9-2.9H25c1.6,0,2.9,1.3,2.9,2.9S26.6,107.3,25,107.3z"/>
	</g>
</g>
</svg>
